<svg version="1.1" xmlns="http://www.w3.org/2000/svg" viewBox="0 0 997.9101562499998 819.65625" width="1995.8203124999995" height="1639.3125">
  <!-- svg-source:excalidraw -->
  
  <defs>
    <style class="style-fonts">
      @font-face {
        font-family: "Virgil";
        src: url("https://excalidraw.com/Virgil.woff2");
      }
      @font-face {
        font-family: "Cascadia";
        src: url("https://excalidraw.com/Cascadia.woff2");
      }
    </style>
  </defs>
  <g stroke-linecap="round" transform="translate(30.46875 308.02734375) rotate(0 94.69921875 208.322265625)"><path d="M32 0 M32 0 C69.78 -1, 106.98 -0.22, 157.4 0 M157.4 0 C177.88 -1.43, 188.27 8.81, 189.4 32 M189.4 32 C189.73 117.08, 190.93 201.33, 189.4 384.64 M189.4 384.64 C188.63 406.63, 179.29 417.11, 157.4 416.64 M157.4 416.64 C125.5 417.96, 90.37 417.78, 32 416.64 M32 416.64 C8.92 414.78, -1.37 405.37, 0 384.64 M0 384.64 C-0.89 284.2, -3.07 182.93, 0 32 M0 32 C-0.38 11.48, 12.57 0.08, 32 0" stroke="#000000" stroke-width="1.5" fill="none" stroke-dasharray="1.5 7"></path></g><g stroke-linecap="round" transform="translate(10 219.87109375) rotate(0 488.9550781249999 294.892578125)"><path d="M32 0 M32 0 C346.88 -1.47, 662.52 -2.54, 945.91 0 M945.91 0 C965.81 -1.13, 976.05 9.43, 977.91 32 M977.91 32 C980.14 218.6, 980.25 404.55, 977.91 557.79 M977.91 557.79 C978.56 579.68, 967.71 588.98, 945.91 589.79 M945.91 589.79 C730.11 590.23, 514.03 590.29, 32 589.79 M32 589.79 C8.8 588.41, -0.61 578.82, 0 557.79 M0 557.79 C0.19 349.11, -0.31 141.39, 0 32 M0 32 C0.82 12.57, 10.75 1.62, 32 0" stroke="#000000" stroke-width="1.5" fill="none" stroke-dasharray="8 9"></path></g><g stroke-linecap="round" transform="translate(89.41015625 10) rotate(0 287.83984375 70.705078125)"><path d="M32 0 M32 0 C180.58 1.03, 327.36 0.6, 543.68 0 M543.68 0 C563.89 -1.86, 574.45 11.76, 575.68 32 M575.68 32 C575.58 62.97, 574.37 90.91, 575.68 109.41 M575.68 109.41 C576.24 131.21, 564.21 140.14, 543.68 141.41 M543.68 141.41 C356.75 142.07, 170.66 141.19, 32 141.41 M32 141.41 C9.29 140.8, -0.3 132.66, 0 109.41 M0 109.41 C-2.16 85.63, -1.16 65.17, 0 32 M0 32 C1.9 10.75, 12.29 0.34, 32 0" stroke="#000000" stroke-width="1.5" fill="none" stroke-dasharray="8 9"></path></g><g stroke-linecap="round" transform="translate(130.69921875 40.5859375) rotate(0 112 28)"><path d="M15.2 -1.14 L215.1 -0.14 L219.65 2.07 L222 6.02 L222.55 46.37 L222.03 51.1 L217.69 55.57 L211.84 55.23 L11.37 56.34 L3.97 51.69 L-0.4 49.4 L0.66 14.51 L-1.04 8.21 L1.76 1.63 L6.5 0.27 L13.7 1.92" stroke="none" stroke-width="0" fill="#228be6"></path><path d="M14 0 M14 0 C69.66 -1.26, 127.71 0.81, 210 0 M14 0 C91.62 -2.41, 167.94 -0.95, 210 0 M210 0 C218.72 1.42, 222.62 6.44, 224 14 M210 0 C218.59 1.74, 225.3 2.59, 224 14 M224 14 C223.52 21.43, 222.81 33.37, 224 42 M224 14 C224.73 19.79, 224.96 26.85, 224 42 M224 42 C223.76 52.92, 219.21 56.13, 210 56 M224 42 C223.68 52.09, 219.53 55.03, 210 56 M210 56 C154.04 54.58, 94.25 56.94, 14 56 M210 56 C150.73 54.51, 91.46 54.23, 14 56 M14 56 C4.41 54.94, 1.94 49.79, 0 42 M14 56 C2.89 56.9, -0.19 52.5, 0 42 M0 42 C1.37 31.13, 1.73 22.57, 0 14 M0 42 C-1.01 34.05, -0.78 27.85, 0 14 M0 14 C0.21 4.71, 5.56 -0.36, 14 0 M0 14 C0.34 3.12, 5.74 2.29, 14 0" stroke="#1864ab" stroke-width="1" fill="none"></path></g><g transform="translate(187.69921875 54.5859375) rotate(0 55 14)"><text x="55" y="21" font-family="Virgil, HanziPen SC, Kai, Segoe UI Emoji" font-size="20px" fill="#ffffff" text-anchor="middle" style="white-space: pre;" direction="ltr">User Browser</text></g><g stroke-linecap="round" transform="translate(391.80078125 41.09765625) rotate(0 112 28)"><path d="M15.82 -0.36 L212.43 -1.21 L219.37 1.64 L221.89 8.97 L225.31 43.88 L222.07 52.94 L217.96 54.36 L210.65 56.56 L11.19 54.97 L2.23 53.78 L1.53 48.64 L-1.91 14.34 L-0.87 6.01 L2.13 2.89 L7.57 2.79 L13.82 2" stroke="none" stroke-width="0" fill="#228be6"></path><path d="M14 0 M14 0 C72.51 2.04, 133.69 1.31, 210 0 M14 0 C87.71 2.26, 163.02 2.33, 210 0 M210 0 C217.95 1.77, 223.36 6.18, 224 14 M210 0 C220.63 -2.08, 224.29 4.57, 224 14 M224 14 C222.75 25.18, 222.62 34.45, 224 42 M224 14 C224.84 21.2, 224.02 29.73, 224 42 M224 42 C223.88 51.47, 219.06 56.66, 210 56 M224 42 C224.2 50.36, 219.15 56.25, 210 56 M210 56 C151.29 55.83, 95.29 55.31, 14 56 M210 56 C167.48 55.96, 123.65 55.62, 14 56 M14 56 C6.61 54.46, -1.54 52.11, 0 42 M14 56 C4.48 57.16, 1.46 50.11, 0 42 M0 42 C1.41 32.51, -1.21 21.44, 0 14 M0 42 C-0.47 30.87, 0.37 20.26, 0 14 M0 14 C0.89 4.31, 4.97 -1.35, 14 0 M0 14 C1.07 6.96, 3.39 1.53, 14 0" stroke="#1864ab" stroke-width="1" fill="none"></path></g><g transform="translate(426.30078125 55.09765625) rotate(0 77.5 14)"><text x="77.5" y="21" font-family="Virgil, HanziPen SC, Kai, Segoe UI Emoji" font-size="20px" fill="#ffffff" text-anchor="middle" style="white-space: pre;" direction="ltr">User Local Dev Env</text></g><g stroke-linecap="round" transform="translate(261.6015625 304.955078125) rotate(0 220.0546875 173.4609375)"><path d="M32 0 M32 0 C127.75 0.54, 226.42 2.21, 408.11 0 M408.11 0 C428.04 1.57, 440.55 12.51, 440.11 32 M440.11 32 C441.17 105.44, 439.84 181.07, 440.11 314.92 M440.11 314.92 C440.77 336.77, 427.53 347.26, 408.11 346.92 M408.11 346.92 C327.69 345.17, 249.16 345.25, 32 346.92 M32 346.92 C12.67 346.93, -1.38 335.01, 0 314.92 M0 314.92 C-0.82 236.68, -0.62 154.71, 0 32 M0 32 C-1.91 11.94, 10.05 1.42, 32 0" stroke="#000000" stroke-width="1.5" fill="none" stroke-dasharray="1.5 7"></path></g><g transform="translate(576.3515625 108.08984375) rotate(0 32 14)"><text x="0" y="21" font-family="Virgil, HanziPen SC, Kai, Segoe UI Emoji" font-size="20px" fill="#495057" text-anchor="start" style="white-space: pre;" direction="ltr">办公网</text></g><g stroke-linecap="round" transform="translate(309.6171875 277.71484375) rotate(0 61 28)"><path d="M12.87 -1.86 L106.77 1.09 L118.06 0.56 L121.6 5.91 L123.62 9.95 L122.65 42.56 L120.5 49.72 L115.26 55.31 L108.66 56.51 L12.09 56.34 L3.73 52.17 L0.59 49.92 L-0.08 47.2 L0.04 12.72 L1.98 4.09 L4.22 1.59 L14.82 1.9" stroke="none" stroke-width="0" fill="#12b886"></path><path d="M14 0 M14 0 C40.94 -2.07, 72.47 -0.78, 108 0 M14 0 C48.54 -0.08, 84.3 -1.74, 108 0 M108 0 C117.59 -0.09, 122.66 4.19, 122 14 M108 0 C115.81 -1.36, 124.14 3.15, 122 14 M122 14 C120.37 26.33, 121.37 35.6, 122 42 M122 14 C121.84 24.95, 122.07 34.82, 122 42 M122 42 C121.84 51.55, 117.19 57.26, 108 56 M122 42 C120.53 49.82, 118.58 56.09, 108 56 M108 56 C77.29 57.46, 45.87 56.02, 14 56 M108 56 C84.01 55.67, 61.48 55.78, 14 56 M14 56 C5.94 54.94, 1.44 52.56, 0 42 M14 56 C3.87 57.82, 1.07 50.14, 0 42 M0 42 C-2.24 31.71, -0.75 24.6, 0 14 M0 42 C0.02 32.86, 0.34 26.07, 0 14 M0 14 C-1.11 5.99, 5.38 -0.75, 14 0 M0 14 C-2.15 4.05, 5.73 -1.14, 14 0" stroke="#087f5b" stroke-width="1" fill="none"></path></g><g transform="translate(346.6171875 291.71484375) rotate(0 24 14)"><text x="24" y="21" font-family="Virgil, HanziPen SC, Kai, Segoe UI Emoji" font-size="20px" fill="#ffff" text-anchor="middle" style="white-space: pre;" direction="ltr">8848</text></g><g stroke-linecap="round" transform="translate(463.2109375 276.1015625) rotate(0 87.5 28)"><path d="M12.77 1.09 L168.65 -0.53 L174.6 5.91 L176.62 9.95 L174.78 48.68 L170 53.22 L159.73 57.28 L8.53 55.64 L0.06 50.87 L-1.52 43.42 L-1.16 10.11 L1.67 7.39 L5.29 3.97 L14.01 -1.38" stroke="none" stroke-width="0" fill="#12b886"></path><path d="M14 0 M14 0 C50.82 -0.52, 85.45 -0.26, 161 0 M14 0 C45.62 -0.23, 77.16 -0.05, 161 0 M161 0 C169.69 1.51, 176.13 2.86, 175 14 M161 0 C170.63 -0.1, 175.76 4.12, 175 14 M175 14 C173.52 22.34, 174.17 28.04, 175 42 M175 14 C175.08 21.05, 175.14 26.57, 175 42 M175 42 C174.72 51.99, 170.51 55.15, 161 56 M175 42 C174.81 51.58, 170.17 57.45, 161 56 M161 56 C126.39 57.36, 90.02 57.39, 14 56 M161 56 C115.62 55.18, 71.46 54.94, 14 56 M14 56 C3.13 56.78, -0.16 52.34, 0 42 M14 56 C6.13 54.78, 1.66 52.74, 0 42 M0 42 C-1.26 34.85, 1.55 25.2, 0 14 M0 42 C0.31 36.4, 0.66 30.59, 0 14 M0 14 C0.3 3.32, 5.6 1.99, 14 0 M0 14 C-1.27 6.19, 5.48 -0.87, 14 0" stroke="#087f5b" stroke-width="1" fill="none"></path></g><g transform="translate(526.7109375 290.1015625) rotate(0 24 14)"><text x="24" y="21" font-family="Virgil, HanziPen SC, Kai, Segoe UI Emoji" font-size="20px" fill="#ffff" text-anchor="middle" style="white-space: pre;" direction="ltr">9848</text></g><g stroke-linecap="round" transform="translate(66.546875 436.484375) rotate(0 58.5 28)"><path d="M15.53 -1.4 L104.57 0.44 L113.37 1.2 L115.68 6.03 L117.25 9.91 L115.73 43.28 L115.69 51.04 L109.62 54.37 L101.26 54.13 L12.63 55.39 L5.17 55.95 L1.79 52.53 L0.23 43.9 L-1.03 10.34 L2.79 7.37 L5.55 3.59 L14.34 -1.66" stroke="none" stroke-width="0" fill="#40c057"></path><path d="M14 0 M14 0 C33.61 -1.11, 52.15 -0.37, 103 0 M14 0 C47.55 0.76, 81.18 0.57, 103 0 M103 0 C111.01 -1.18, 118.86 3.35, 117 14 M103 0 C114.4 -0.77, 118.09 2.9, 117 14 M117 14 C118.51 24.25, 117.06 34.47, 117 42 M117 14 C116.94 23.43, 116.95 33.28, 117 42 M117 42 C115.72 50.02, 113.41 56.08, 103 56 M117 42 C117.65 49.49, 113.02 56.18, 103 56 M103 56 C70 57.83, 37.57 54.34, 14 56 M103 56 C73.46 55.92, 43.37 57.06, 14 56 M14 56 C3.98 57.58, 0.93 50.3, 0 42 M14 56 C5 58.04, -2.22 49.05, 0 42 M0 42 C0.12 36.58, -0.29 29.66, 0 14 M0 42 C-0.68 36.15, 0.23 28.59, 0 14 M0 14 C-1.87 4.13, 5.59 -0.99, 14 0 M0 14 C-0.31 2.81, 3.34 2.05, 14 0" stroke="#087f5b" stroke-width="1" fill="none"></path></g><g transform="translate(77.546875 450.484375) rotate(0 47.5 14)"><text x="47.5" y="21" font-family="Virgil, HanziPen SC, Kai, Segoe UI Emoji" font-size="20px" fill="#ffff" text-anchor="middle" style="white-space: pre;" direction="ltr">Console API</text></g><g stroke-linecap="round" transform="translate(311.76171875 436.17578125) rotate(0 70.5 28)"><path d="M15.57 0.44 L134.96 0.11 L139.68 6.03 L141.25 9.91 L138.85 49.4 L136.19 54.54 L125.09 56.34 L6.13 53.26 L0.59 49.92 L-0.08 47.2 L0.04 12.72 L1.98 4.09 L4.22 1.59 L14.82 1.9" stroke="none" stroke-width="0" fill="#40c057"></path><path d="M14 0 M14 0 C46.72 -2.1, 84.03 -0.81, 127 0 M14 0 C55.59 -0.24, 98.39 -1.91, 127 0 M127 0 C136.59 -0.09, 141.66 4.19, 141 14 M127 0 C134.81 -1.36, 143.14 3.15, 141 14 M141 14 C139.37 26.33, 140.37 35.6, 141 42 M141 14 C140.84 24.95, 141.07 34.82, 141 42 M141 42 C140.84 51.55, 136.19 57.26, 127 56 M141 42 C139.53 49.82, 137.58 56.09, 127 56 M127 56 C90.05 57.51, 52.39 56.08, 14 56 M127 56 C98.32 55.52, 71.09 55.64, 14 56 M14 56 C5.94 54.94, 1.44 52.56, 0 42 M14 56 C3.87 57.82, 1.07 50.14, 0 42 M0 42 C-2.24 31.71, -0.75 24.6, 0 14 M0 42 C0.02 32.86, 0.34 26.07, 0 14 M0 14 C-1.11 5.99, 5.38 -0.75, 14 0 M0 14 C-2.15 4.05, 5.73 -1.14, 14 0" stroke="#087f5b" stroke-width="1" fill="none"></path></g><g transform="translate(320.76171875 450.17578125) rotate(0 60.5 14)"><text x="60.5" y="21" font-family="Virgil, HanziPen SC, Kai, Segoe UI Emoji" font-size="20px" fill="#ffff" text-anchor="middle" style="white-space: pre;" direction="ltr">1.X Client API</text></g><g stroke-linecap="round" transform="translate(484.9375 435.51171875) rotate(0 70.5 28)"><path d="M15.84 -0.77 L133.78 1.43 L139.5 4.66 L139.51 12 L140.78 48.64 L133.62 54.37 L125.26 54.13 L6.5 54.52 L1.67 52.45 L0.04 47.28 L0.23 9.34 L0.72 5.09 L6.29 3.87 L14.08 1.62" stroke="none" stroke-width="0" fill="#40c057"></path><path d="M14 0 M14 0 C51.08 0.46, 87.04 -0.3, 127 0 M14 0 C58.47 -1.76, 101.93 -0.9, 127 0 M127 0 C136.99 -0.47, 139.67 3.49, 141 14 M127 0 C138.47 -1.51, 143.07 3.9, 141 14 M141 14 C140.25 23.49, 142.37 33.34, 141 42 M141 14 C141.05 22.16, 140.88 31.28, 141 42 M141 42 C140.86 52.59, 135.05 54.68, 127 56 M141 42 C142.24 51.42, 136.99 54.16, 127 56 M127 56 C89.34 56.41, 51.41 58.61, 14 56 M127 56 C101.72 56.95, 77.24 55.91, 14 56 M14 56 C6.11 57.22, -0.69 52.91, 0 42 M14 56 C5.74 54.81, 0.33 53.37, 0 42 M0 42 C-0.22 36.51, 0.32 31.51, 0 14 M0 42 C0.42 35.1, -0.6 26.86, 0 14 M0 14 C0.71 3.91, 2.79 -0.53, 14 0 M0 14 C1.06 3.53, 4.36 -1.86, 14 0" stroke="#087f5b" stroke-width="1" fill="none"></path></g><g transform="translate(493.9375 449.51171875) rotate(0 60.5 14)"><text x="60.5" y="21" font-family="Virgil, HanziPen SC, Kai, Segoe UI Emoji" font-size="20px" fill="#ffff" text-anchor="middle" style="white-space: pre;" direction="ltr">2.X Client API</text></g><g transform="translate(637.1484375 606.23046875) rotate(0 23 14)"><text x="0" y="21" font-family="Virgil, HanziPen SC, Kai, Segoe UI Emoji" font-size="20px" fill="#495057" text-anchor="start" style="white-space: pre;" direction="ltr">Nacos</text></g><g transform="translate(881.71484375 755.640625) rotate(0 44 14)"><text x="0" y="21" font-family="Virgil, HanziPen SC, Kai, Segoe UI Emoji" font-size="20px" fill="#495057" text-anchor="start" style="white-space: pre;" direction="ltr">内网/VPC</text></g><g stroke-linecap="round" transform="translate(734.296875 298.83984375) rotate(0 98.396484375 185.568359375)"><path d="M32 0 M32 0 C76.21 1.5, 118.39 -1.07, 164.79 0 M164.79 0 C186.46 -1.74, 194.93 9.29, 196.79 32 M196.79 32 C196.33 116.26, 196.46 196.65, 196.79 339.14 M196.79 339.14 C195.54 360.09, 186.94 373.04, 164.79 371.14 M164.79 371.14 C122.74 369.45, 85.27 370.74, 32 371.14 M32 371.14 C12.09 369.75, 1.77 359.83, 0 339.14 M0 339.14 C-1.06 223.73, -0.77 108.1, 0 32 M0 32 C-1.33 9.49, 12.52 -1.31, 32 0" stroke="#000000" stroke-width="1.5" fill="none" stroke-dasharray="1.5 7"></path></g><g stroke-linecap="round" transform="translate(758.16015625 341.02734375) rotate(0 77.5 28)"><path d="M13.19 -1.27 L148.4 1.53 L153.54 3.56 L155.12 8.98 L152.26 46.75 L148.92 53.73 L142.92 55.82 L9.87 55.13 L0.59 49.28 L-0.16 46.1 L2.12 10.8 L3.59 5.81 L3.81 0.06 L15.28 -0.62" stroke="none" stroke-width="0" fill="#228be6"></path><path d="M14 0 M14 0 C60.46 0.39, 109.34 -2.93, 141 0 M14 0 C53.49 -1.08, 92.85 0.51, 141 0 M141 0 C149.02 1.8, 154.33 5.62, 155 14 M141 0 C148.57 1.62, 154.39 4.4, 155 14 M155 14 C154.71 25.28, 155.16 34.39, 155 42 M155 14 C155.66 21.53, 154.37 30.89, 155 42 M155 42 C155.08 51.9, 148.73 56.6, 141 56 M155 42 C155.18 52.69, 149.88 55.7, 141 56 M141 56 C108.09 55.8, 78.09 56.03, 14 56 M141 56 C95.43 56.57, 49.42 57.38, 14 56 M14 56 C3.63 56.29, 1.77 49.4, 0 42 M14 56 C2.38 54.29, -0.57 51.57, 0 42 M0 42 C0.17 32.19, 0.8 27.06, 0 14 M0 42 C-0.56 34.21, -0.45 28.76, 0 14 M0 14 C-0.99 4.4, 3.05 -1.15, 14 0 M0 14 C2.05 3.56, 3.84 -1.89, 14 0" stroke="#1864ab" stroke-width="1" fill="none"></path></g><g transform="translate(792.16015625 355.02734375) rotate(0 43.5 14)"><text x="43.5" y="21" font-family="Virgil, HanziPen SC, Kai, Segoe UI Emoji" font-size="20px" fill="#ffffff" text-anchor="middle" style="white-space: pre;" direction="ltr">User App1</text></g><g stroke-linecap="round" transform="translate(760.7734375 421.9921875) rotate(0 77.5 28)"><path d="M15.28 0.66 L147.64 -1.04 L153.37 3.73 L152.92 9.34 L153.52 47.82 L151.45 53.85 L143 56.01 L6.49 53.88 L1.59 51.35 L2.12 45.37 L1.84 11.06 L0.31 3.56 L6.74 1.35 L15.42 -1.38" stroke="none" stroke-width="0" fill="#228be6"></path><path d="M14 0 M14 0 C64.47 -2.77, 112.94 -1.05, 141 0 M14 0 C55.7 1.77, 97.93 1.74, 141 0 M141 0 C149.67 0.95, 153.47 6.08, 155 14 M141 0 C149.72 -0.27, 156.82 4.53, 155 14 M155 14 C155.14 21.74, 154.8 31.39, 155 42 M155 14 C154.52 22.74, 155.22 30.68, 155 42 M155 42 C153.4 51.93, 150.49 57.18, 141 56 M155 42 C154.55 51.04, 149.11 58.23, 141 56 M141 56 C112.51 57.51, 85.63 55.44, 14 56 M141 56 C94.52 56.03, 45.95 55.7, 14 56 M14 56 C6.44 54.07, -1.99 49.85, 0 42 M14 56 C4.09 56.24, 0.05 52.36, 0 42 M0 42 C0.89 36.09, -1.15 27.53, 0 14 M0 42 C-0.16 33.07, -0.39 23.08, 0 14 M0 14 C-1.62 3.52, 6.45 -0.96, 14 0 M0 14 C-0.83 2.78, 3.51 -1.19, 14 0" stroke="#1864ab" stroke-width="1" fill="none"></path></g><g transform="translate(794.7734375 435.9921875) rotate(0 43.5 14)"><text x="43.5" y="21" font-family="Virgil, HanziPen SC, Kai, Segoe UI Emoji" font-size="20px" fill="#ffffff" text-anchor="middle" style="white-space: pre;" direction="ltr">User App2</text></g><g transform="translate(813.14453125 511.03515625) rotate(0 21.5 14)"><text x="0" y="21" font-family="Virgil, HanziPen SC, Kai, Segoe UI Emoji" font-size="20px" fill="#495057" text-anchor="start" style="white-space: pre;" direction="ltr">……</text></g><g stroke-linecap="round" transform="translate(760.4921875 562.1171875) rotate(0 77.5 28)"><path d="M12.09 0.34 L145.38 -0.99 L151.66 4.86 L154.48 12.64 L153.95 50.12 L149.54 52.65 L139.75 55.62 L8.69 57.03 L2.05 52.15 L0.56 43.63 L-1.69 11.99 L1.35 6.89 L4.09 3.74 L13.36 1.51" stroke="none" stroke-width="0" fill="#228be6"></path><path d="M14 0 M14 0 C59.17 0.5, 104.04 -1.49, 141 0 M14 0 C45.5 0.5, 75.68 0.07, 141 0 M141 0 C151.74 -0.53, 154.76 6.25, 155 14 M141 0 C150.19 0.15, 154.68 5.43, 155 14 M155 14 C155.1 22.5, 156.14 30.01, 155 42 M155 14 C155.44 19.76, 155.45 27.19, 155 42 M155 42 C156.18 50.94, 150.08 54.94, 141 56 M155 42 C157.23 49.56, 148.56 56.9, 141 56 M141 56 C102.88 58.25, 68.1 56.12, 14 56 M141 56 C93.01 56.23, 43.78 54.35, 14 56 M14 56 C3.18 55.5, 0.21 51.38, 0 42 M14 56 C5.69 55.59, 0.34 49.78, 0 42 M0 42 C1.05 33.01, -1.03 20.73, 0 14 M0 42 C-0.26 33.54, -0.7 27.58, 0 14 M0 14 C-0.96 3.95, 3.03 -1.01, 14 0 M0 14 C-1.19 6.15, 4.58 -1.2, 14 0" stroke="#1864ab" stroke-width="1" fill="none"></path></g><g transform="translate(793.9921875 576.1171875) rotate(0 44 14)"><text x="44" y="21" font-family="Virgil, HanziPen SC, Kai, Segoe UI Emoji" font-size="20px" fill="#ffffff" text-anchor="middle" style="white-space: pre;" direction="ltr">User AppN</text></g><g stroke-linecap="round" transform="translate(420.12109375 530.609375) rotate(0 126.5 28)"><path d="M12.26 -1.87 L240.91 -0.39 L249.2 5.42 L251.95 9.87 L252.79 43.9 L248.25 52.12 L245.94 57.03 L239.08 57.62 L11.06 54.13 L1.59 53.78 L0.26 49.54 L-1.38 15.77 L0.23 9.39 L4.63 1.69 L8.13 0.79 L14.66 -0.47" stroke="none" stroke-width="0" fill="#15aabf"></path><path d="M14 0 M14 0 C65.46 -0.25, 118.61 -0.98, 239 0 M14 0 C64.15 1.2, 114.45 0.57, 239 0 M239 0 C248.06 0.66, 253.17 3.82, 253 14 M239 0 C248.15 0.25, 252.84 6.11, 253 14 M253 14 C252.89 21.18, 251.21 27.81, 253 42 M253 14 C253.04 22.09, 254.13 30.47, 253 42 M253 42 C251.46 52.11, 248.17 57.01, 239 56 M253 42 C254.46 50.11, 249.99 57.41, 239 56 M239 56 C178.38 57.15, 121.05 55.24, 14 56 M239 56 C193.94 55.54, 149.09 55.36, 14 56 M14 56 C4.97 54.65, 0.93 53.33, 0 42 M14 56 C3.39 57.53, 0.82 50.47, 0 42 M0 42 C-0.92 35.96, -1.54 29.29, 0 14 M0 42 C-0.69 30.6, -0.38 20.84, 0 14 M0 14 C-0.08 3.62, 4.69 -0.58, 14 0 M0 14 C-1.61 5.7, 2.74 -1.6, 14 0" stroke="#0b7285" stroke-width="1" fill="none"></path></g><g transform="translate(464.12109375 544.609375) rotate(0 82.5 14)"><text x="82.5" y="21" font-family="Virgil, HanziPen SC, Kai, Segoe UI Emoji" font-size="20px" fill="#fff" text-anchor="middle" style="white-space: pre;" direction="ltr">Nacos Core Features</text></g><g stroke-linecap="round"><g transform="translate(453.4593299595176 689.9491937040261) rotate(0 43.37670030768686 9.838766380802326)" fill-rule="evenodd"><path d="M0 0 C0 0, 0 0, 0 0 M0 0 C0 0, 0 0, 0 0 M0.54 6.76 C4.23 0.65, 7.69 -1.97, 11.4 -10.16 M1 5.14 C5.32 1.3, 8.53 -3.39, 13.3 -9.19 M-1.85 10.55 C6.02 4.86, 13.16 -2.04, 20.77 -11.81 M-0.42 12.7 C5.26 5.84, 8.85 0.33, 21.59 -12.61 M2.31 16.72 C7.77 7.33, 15.19 -0.94, 28.71 -13.34 M-0.17 18.13 C6.35 9.4, 12.88 2.91, 27.21 -13.41 M2.36 24.16 C12.43 12.54, 21.07 -0.95, 32.49 -14.52 M0.82 23.58 C9.54 13.71, 18.68 3.28, 32.89 -14.68 M1.49 27.04 C15.62 11.12, 30.73 -2.53, 40.29 -19.24 M2.96 26.42 C17.84 10.09, 32.48 -6.17, 41.77 -17.52 M7.96 29.64 C19.37 13.67, 32.09 -0.41, 46.98 -17.34 M7.04 28.5 C19.28 15.05, 31.78 0.57, 46.18 -17.18 M10.11 31.76 C22.95 17.69, 35.62 5.99, 50.92 -18.75 M10.18 31.22 C17.28 22.01, 26.94 12.81, 52.35 -16.71 M14.02 31.84 C25.08 17.7, 38.38 2.74, 57.22 -18.02 M13.45 33.24 C26.07 18.74, 36.65 4.81, 56.59 -15.79 M16 36 C35.86 14.75, 51.59 -5.56, 62.06 -18.12 M17.18 35.04 C33.62 16.82, 49.15 -0.28, 61.52 -16 M22.25 34.9 C38.27 16.98, 57.71 -5.26, 67.14 -15.77 M20.6 36.48 C34.81 21.65, 48.06 4.34, 65.4 -14.54 M26 35.95 C38.8 21.96, 53.72 5.83, 70.01 -14.98 M25.81 36.54 C36.28 24.21, 47.24 11.44, 70.36 -13.17 M32.48 39.29 C42.67 26.35, 52.52 13.9, 75.82 -13.92 M30.75 37.88 C46.94 18.81, 63.27 0.69, 75.12 -11.48 M34.74 38.91 C44.76 24.05, 57.14 13.03, 78.41 -12.39 M35.85 39.61 C45.18 26.88, 56.38 13.04, 77.92 -9.8 M40.62 40.37 C54.06 25.67, 67.45 7.51, 79.37 -6.46 M40.92 39.56 C56.02 20.71, 71.95 2.63, 80.48 -8.22 M43.89 39.25 C53.33 29.3, 63.58 18.1, 83.73 -3.02 M45.23 40.33 C57.88 24.72, 70.46 10.58, 83.68 -4.52 M52.6 37.31 C61.04 27.46, 72.09 13.24, 87.7 -2.55 M51.75 38.06 C58.95 29.36, 65.95 20.43, 86.11 -1.42 M57.51 39.44 C68.27 26.94, 78.31 16.03, 85.76 3.01 M56.46 38.97 C68.08 26.77, 77.89 13.24, 87.14 2.23 M63.78 38.61 C73.79 27.81, 81.38 13.44, 89.03 4.5 M61.99 36.89 C68.39 30.23, 76.16 21.09, 90.14 7.22 M67.41 36.79 C74.14 31.31, 77.49 26.79, 87.09 11.7 M68.92 35.77 C74.94 30.44, 80.06 24.57, 88.22 12.76 M76.42 32.45 C79.07 28.87, 84.04 24.52, 88.21 20.22 M76.84 33.62 C81.15 28.13, 83.92 24.43, 89.23 20.84" stroke="#000000" stroke-width="0.5" fill="none"></path><path d="M-0.18 1.15 C-0.03 3.32, -0.08 9.13, 0.08 12.64 C0.24 16.16, -0.86 19.02, 0.76 22.26 C2.39 25.5, 4.97 29.46, 9.84 32.1 C14.71 34.74, 22.13 37.12, 29.98 38.09 C37.83 39.06, 49.31 38.98, 56.95 37.92 C64.59 36.86, 71.21 33.8, 75.82 31.74 C80.42 29.68, 82.78 28.8, 84.58 25.56 C86.37 22.32, 86.56 16.68, 86.58 12.3 C86.61 7.91, 86.85 3.3, 84.71 -0.74 C82.56 -4.79, 78.68 -8.94, 73.71 -11.94 C68.75 -14.95, 62.31 -17.86, 54.93 -18.76 C47.55 -19.65, 36.92 -18.59, 29.45 -17.32 C21.99 -16.05, 15.17 -13.89, 10.13 -11.13 C5.09 -8.36, 0.71 -2.43, -0.8 -0.71 M-1.74 0.71 C-1.68 2.61, -1.21 7.41, -0.92 11.15 C-0.63 14.89, -1.77 19.49, 0 23.14 C1.77 26.8, 4.89 31.04, 9.69 33.08 C14.48 35.13, 20.65 34.7, 28.77 35.42 C36.88 36.14, 50.42 37.7, 58.39 37.39 C66.36 37.07, 71.86 35.49, 76.57 33.53 C81.27 31.57, 84.64 29.32, 86.61 25.62 C88.58 21.93, 88.64 15.74, 88.38 11.36 C88.12 6.98, 87.47 3.61, 85.04 -0.64 C82.62 -4.89, 79.03 -11.57, 73.83 -14.14 C68.64 -16.72, 61.22 -15.42, 53.87 -16.09 C46.53 -16.76, 37.14 -18.94, 29.76 -18.17 C22.39 -17.4, 14.74 -14.22, 9.64 -11.47 C4.53 -8.71, 0.88 -3.56, -0.88 -1.64" stroke="#000000" stroke-width="1" fill="none"></path></g></g><mask></mask><g stroke-linecap="round" transform="translate(461.12692748515065 674.4791188799948) rotate(0 35.43870067136845 13.553044166104087)"><path d="M32.94 -0.7 C39.97 -0.99, 48.59 0.91, 54.68 2.76 C60.77 4.61, 67.21 7.77, 69.49 10.41 C71.77 13.05, 71.35 15.96, 68.35 18.62 C65.35 21.28, 58.49 24.91, 51.48 26.39 C44.47 27.86, 33.69 28.38, 26.29 27.47 C18.89 26.56, 11.43 23.27, 7.09 20.93 C2.75 18.58, -0.1 16.38, 0.25 13.4 C0.59 10.43, 2.76 5.34, 9.15 3.08 C15.54 0.82, 32.37 0.19, 38.58 -0.17 C44.79 -0.52, 46.26 0.72, 46.39 0.96 M39.58 -0.79 C47.14 -0.79, 56.08 2.45, 61.18 4.38 C66.27 6.31, 69.61 7.88, 70.14 10.8 C70.66 13.71, 68.63 19.28, 64.32 21.88 C60.02 24.48, 51.74 25.87, 44.3 26.4 C36.85 26.93, 26.23 26.32, 19.65 25.04 C13.08 23.76, 8.03 21.39, 4.85 18.71 C1.67 16.04, -0.97 11.8, 0.56 8.98 C2.08 6.16, 7.58 3.27, 13.99 1.77 C20.41 0.27, 35.17 0.22, 39.05 -0.02 C42.92 -0.26, 37.53 0.27, 37.25 0.33" stroke="none" stroke-width="0" fill="#ffff"></path><path d="M51.8 1.47 C58.41 2.91, 65.97 6.7, 68.85 9.57 C71.73 12.44, 71.53 16.24, 69.06 18.69 C66.59 21.15, 60.7 22.81, 54.05 24.3 C47.4 25.78, 36.75 27.77, 29.16 27.59 C21.57 27.41, 13.51 25.36, 8.53 23.22 C3.56 21.08, -0.5 17.66, -0.68 14.76 C-0.86 11.87, 2.48 8.41, 7.43 5.85 C12.38 3.28, 20.64 -0.15, 29.02 -0.64 C37.4 -1.12, 52.25 2.07, 57.73 2.93 C63.21 3.8, 62.4 4.48, 61.9 4.57 M50.8 2.15 C57.43 3.18, 63.78 6.71, 66.81 9.23 C69.84 11.74, 70.78 14.66, 69 17.25 C67.22 19.84, 62.4 23.18, 56.14 24.78 C49.88 26.37, 39.13 27.11, 31.47 26.81 C23.81 26.51, 15.53 25.09, 10.19 23 C4.85 20.9, -0.07 17.18, -0.57 14.24 C-1.08 11.3, 2.36 7.84, 7.15 5.37 C11.94 2.89, 20.97 -0.07, 28.16 -0.59 C35.36 -1.11, 46.5 1.8, 50.31 2.24 C54.13 2.69, 51.34 1.96, 51.04 2.1" stroke="#000000" stroke-width="1" fill="none"></path></g><g stroke-linecap="round"><g transform="translate(453.8427611433617 720.9248309232735) rotate(0 42.42430291549283 17.949170984837338)" fill-rule="evenodd"><path d="M0 0 C0 0, 0 0, 0 0 M0 0 C0 0, 0 0, 0 0 M0.13 6.13 C1.19 3.91, 2.95 2.9, 3.93 2.19 M0.31 5.84 C1.29 4.56, 2.02 3.98, 3.43 1.62 M0.81 11.73 C2.11 9.73, 3.09 8.34, 8.35 3.19 M0.32 11.15 C3.4 8.3, 5.5 5.38, 7.06 4.19 M0.48 16.2 C4.44 14.29, 5.12 11.7, 9.96 5.38 M0.5 17.26 C4.29 13.24, 7.79 9.06, 10.74 6.87 M0.11 22.99 C4.63 17.47, 9.42 13.99, 14.76 8.04 M2.09 22.75 C4.82 17.57, 10.13 13.73, 13.74 7.38 M4.71 27.58 C6.88 19.29, 14.59 14.37, 19.06 8.69 M4.08 26.35 C7.65 21.74, 11.85 17.24, 17.86 10.18 M7.93 27.35 C11.87 23.1, 16.89 17.32, 22.86 11.93 M7.83 28.17 C9.46 24.93, 13.54 20.62, 22.46 10.86 M12.5 32.42 C14.4 23.13, 18.46 18.9, 27.17 12.54 M10.88 31.13 C15.04 26.4, 18.5 21.31, 28.19 11.33 M14.09 30.76 C18.9 26.26, 21.79 24.03, 34.02 12.09 M14.17 31.13 C18.69 27.71, 24.12 21.19, 32.55 10.84 M18.93 31.56 C24.58 24.9, 31.5 17.89, 37.56 12.56 M18.77 34.09 C22.58 28.78, 28.36 24.17, 36.84 12.17 M24.2 33.46 C27.33 30, 30.75 27.35, 42.48 11.1 M22.06 34.71 C26.79 29.62, 33.2 22.49, 43.46 11.91 M27.75 35.97 C32.17 28.58, 35.82 24.15, 48.39 12.66 M26.43 35.51 C32.58 30.52, 36.16 25.31, 46.19 13.77 M33.91 35.19 C41.51 25.3, 49.11 16.88, 52.19 12.17 M32.99 35.15 C39.94 29.14, 45.57 20.51, 53.5 12.34 M36.44 37.22 C44.76 26.73, 50.06 22.09, 59.85 12.55 M37.42 35.39 C45.94 26.97, 54.84 15.54, 58.23 11.64 M42.35 35.59 C48.89 28.42, 60.62 17.3, 63.47 12.32 M41.64 37.18 C49.82 27.18, 57.64 17.67, 65.52 10.38 M46.25 37.97 C54.94 30.25, 62.68 19.18, 71.57 7.56 M47.18 36.92 C57.28 26, 67.65 15.09, 73.07 8.5 M50.71 38.35 C61.11 27.97, 64.34 21.31, 83.66 3.63 M51.34 37.22 C59.08 29.79, 65.4 23.12, 82.53 2.46 M59.43 37.72 C66.08 25.34, 79.02 14.99, 87.96 2.89 M57.32 37.23 C67.41 24.37, 78.27 14.03, 87.22 3.56 M62.88 34.78 C71.31 24.49, 79.71 18.13, 89.59 6.99 M63.76 35.88 C70.11 30.37, 75.07 22.02, 87.15 7.87 M68.06 37.33 C73.37 27.44, 80.59 23.6, 87.04 14.65 M69.4 36.93 C73.01 30.06, 77.95 26.28, 87.45 14.55" stroke="#000000" stroke-width="0.5" fill="none"></path><path d="M-0.11 1.2 C-0.04 2.7, 0.04 6.5, 0.19 10.14 C0.35 13.79, -1.25 19.4, 0.85 23.09 C2.94 26.78, 7.77 30.07, 12.76 32.27 C17.76 34.46, 23.32 35.94, 30.8 36.26 C38.29 36.58, 50.64 34.74, 57.66 34.17 C64.68 33.59, 68.63 34.13, 72.92 32.8 C77.21 31.46, 81.45 29.22, 83.43 26.16 C85.41 23.1, 84.53 18.46, 84.78 14.43 C85.03 10.4, 85.15 4.14, 84.93 2 C84.7 -0.14, 85.44 0.73, 83.44 1.62 C81.45 2.5, 77.42 5.88, 72.95 7.31 C68.48 8.74, 63.58 9.71, 56.64 10.17 C49.7 10.62, 38.45 10.68, 31.32 10.05 C24.19 9.42, 18.9 8.14, 13.86 6.4 C8.82 4.66, 3.3 0.82, 1.08 -0.4 M-1.62 0.78 C-1.7 2.92, -1.58 7.33, -0.75 11.25 C0.08 15.16, 1.01 21.11, 3.35 24.29 C5.69 27.46, 8.93 28.77, 13.27 30.31 C17.6 31.85, 21.71 32.51, 29.36 33.5 C37.01 34.49, 51.92 36.54, 59.18 36.26 C66.45 35.99, 69.12 33.52, 72.96 31.85 C76.8 30.19, 79.98 29.31, 82.21 26.27 C84.44 23.22, 85.79 17.64, 86.33 13.6 C86.88 9.56, 85.86 3.95, 85.49 2.02 C85.12 0.09, 86.43 1.22, 84.12 2.03 C81.81 2.84, 76.12 5.66, 71.62 6.86 C67.11 8.05, 63.37 8.76, 57.07 9.19 C50.78 9.63, 41.51 10.12, 33.85 9.49 C26.19 8.86, 16.92 6.91, 11.11 5.43 C5.31 3.96, 0.94 1.66, -0.98 0.64" stroke="#000000" stroke-width="1" fill="none"></path></g></g><mask></mask><g stroke-linecap="round"><g transform="translate(453.8832723087312 750.5114106805966) rotate(0 43.11052473000143 16.920221734548704)" fill-rule="evenodd"><path d="M0 0 C0 0, 0 0, 0 0 M0 0 C0 0, 0 0, 0 0 M0.88 5.26 C0.93 4.8, 2.2 3.8, 3.99 1.6 M0.59 5.76 C1.46 4.29, 3.04 2.6, 3.43 1.68 M1.24 11.11 C2.74 8.54, 4.85 8.13, 6.8 4.4 M0.66 11.52 C2.77 8.75, 4.82 6, 7.8 3.5 M0.41 17.89 C3.82 13.21, 6.49 10.56, 9.97 6.28 M1.54 16.77 C3.28 14.77, 4.83 12.52, 11.56 5.92 M2 21.4 C5.4 17.38, 10.87 14.08, 13.85 8.72 M1.75 21.78 C5.15 18.46, 9.88 13.2, 13.19 8.39 M6.23 23.49 C6.73 22.52, 10.59 17.7, 17.72 8.77 M5 24.97 C8.89 20.64, 12.88 15.46, 19.2 9.5 M6.39 27.82 C12.94 21.97, 17.96 16.24, 24.17 8.81 M7.21 27.02 C13.46 21.16, 18.64 14.68, 23.1 10.36 M13.27 28.65 C15.73 20.63, 23.26 15.07, 29.41 9.36 M11.97 30.07 C15.38 25.39, 18.43 21.67, 28.2 9.83 M14.17 31.82 C18.11 26.25, 24.3 23.01, 33.58 10.01 M14.53 31.2 C23 24.49, 28.35 15.59, 32.34 11.34 M17.43 32.79 C24.77 25.54, 31.74 16.25, 38.69 10.24 M19.95 32.26 C26.28 26.09, 33.3 16.9, 38.29 10.59 M21.13 35.41 C28.45 27.59, 36.58 20.39, 41.85 11.25 M22.38 33.67 C30.15 27.07, 35.9 20.17, 42.66 11.3 M28.27 34.97 C31.17 28.24, 37.05 25.03, 46.63 11.76 M27.81 35.32 C32.29 29.68, 36.55 24.85, 47.74 13.9 M32.12 36.8 C39.01 27.49, 47.38 16.95, 52.18 13.33 M32.07 36.11 C39.92 27.89, 45.13 22.22, 52.34 12.76 M38.77 36.09 C40.43 29.71, 47.93 26.67, 60 13.41 M36.94 35.59 C43.75 29.7, 47.56 22.57, 59.09 12.16 M41.77 34.39 C50.54 30.41, 55.39 19.9, 65.81 12.19 M43.36 35.5 C48 29.17, 53.14 24.37, 63.87 11.02 M47.37 37.5 C54.34 30.87, 57.97 22.49, 72.73 9.59 M46.32 37.45 C55.61 27.8, 64.9 18.26, 73.67 6.83 M53.79 38.7 C58.54 26.88, 67.06 20.31, 84.72 0.16 M52.66 37.12 C61.74 26.8, 71.58 15.49, 83.54 2.42 M59.2 34.67 C69.54 24.52, 81.91 11.17, 87.19 3.89 M58.7 36.05 C67.94 24.86, 79.72 11.9, 87.86 3.69 M62.29 35.18 C70.73 24.9, 83.13 17.69, 86.04 7.67 M63.39 36.29 C69.74 29.44, 73.28 23.66, 86.92 9 M70.88 33.76 C73.33 28.81, 81.83 22.55, 87.05 14.14 M70.48 34.89 C75.09 28.06, 82.79 21.11, 86.94 14.9" stroke="#000000" stroke-width="0.5" fill="none"></path><path d="M1.2 0.01 C0.9 1.68, -0.67 6.06, -0.64 9.91 C-0.61 13.77, -0.97 19.75, 1.37 23.15 C3.71 26.55, 8.36 28.41, 13.41 30.3 C18.47 32.19, 24.55 34.05, 31.73 34.5 C38.9 34.96, 49.28 33.65, 56.47 33.02 C63.65 32.4, 70.14 32.31, 74.83 30.76 C79.53 29.22, 82.68 26.79, 84.65 23.77 C86.62 20.74, 86.41 16.28, 86.67 12.61 C86.93 8.93, 87.05 3.38, 86.22 1.74 C85.39 0.1, 83.93 1.81, 81.68 2.78 C79.43 3.75, 77.03 6.45, 72.74 7.55 C68.46 8.65, 62.85 8.69, 55.96 9.36 C49.07 10.03, 38.74 11.79, 31.4 11.57 C24.07 11.36, 17.26 9.9, 11.96 8.07 C6.66 6.24, 1.75 1.77, -0.4 0.57 M0.37 -1.04 C0.35 0.78, 1.62 7.37, 1.64 11.06 C1.66 14.74, -1.01 17.67, 0.48 21.07 C1.98 24.46, 5.55 29.11, 10.6 31.43 C15.65 33.75, 22.97 34.4, 30.76 35 C38.56 35.6, 49.84 35.39, 57.36 35.04 C64.88 34.69, 71.43 34.89, 75.88 32.88 C80.33 30.87, 82.46 26.03, 84.07 22.99 C85.68 19.96, 85.6 18.24, 85.56 14.68 C85.51 11.12, 84.49 3.45, 83.8 1.64 C83.12 -0.16, 83.51 2.9, 81.43 3.84 C79.35 4.79, 75.54 6.01, 71.3 7.34 C67.07 8.66, 62.87 11.01, 56.04 11.78 C49.21 12.55, 37.69 12.58, 30.33 11.97 C22.97 11.35, 16.86 10.33, 11.87 8.08 C6.89 5.83, 2.24 0.08, 0.43 -1.54" stroke="#000000" stroke-width="1" fill="none"></path></g></g><mask></mask><g mask="url(#mask-ZwomKuYGuEZuMSv8as7Uf)" stroke-linecap="round"><g transform="translate(225.0546875 112.61328125) rotate(0 -21.00986023285577 75.67221763868818)"><path d="M-0.75 -0.23 C-7.82 25.37, -35.37 127.27, -42.39 152.74 M1.06 -1.39 C-6.12 23.97, -35.64 125.86, -43.08 151.22" stroke="#364fc7" stroke-width="1" fill="none"></path></g><g transform="translate(225.0546875 112.61328125) rotate(0 -21.00986023285577 75.67221763868818)"><path d="M-45.43 122.1 C-42.76 130.37, -42.45 139.62, -44.73 149.3 M-45.74 122.17 C-44.75 132.91, -43.14 142.14, -42.95 151.17" stroke="#364fc7" stroke-width="1" fill="none"></path></g><g transform="translate(225.0546875 112.61328125) rotate(0 -21.00986023285577 75.67221763868818)"><path d="M-25.73 127.83 C-28.94 134.26, -34.55 141.79, -44.73 149.3 M-26.04 127.9 C-32.19 136.7, -37.76 143.84, -42.95 151.17" stroke="#364fc7" stroke-width="1" fill="none"></path></g></g><mask id="mask-ZwomKuYGuEZuMSv8as7Uf"><rect x="0" y="0" fill="#fff" width="367.93146217270123" height="364.21093750000006"></rect><rect x="136.61630016364938" y="176.912109375" fill="#000" width="134" height="23" opacity="1"></rect></mask><g transform="translate(136.61630016364938 176.912109375) rotate(0 67.42852710349484 11.373389513688181)"><text x="67" y="17" font-family="Virgil, HanziPen SC, Kai, Segoe UI Emoji" font-size="16px" fill="#1864ab" text-anchor="middle" style="white-space: pre;" direction="ltr">办公网访问控制台</text></g><g mask="url(#mask-L_qLfsANXUH3zpq2JdQgJ)" stroke-linecap="round"><g transform="translate(117.21250752138803 344.2174774170062) rotate(0 -3.7832961818561444 42.09120907281519)"><path d="M0.49 1.14 C-0.57 15.09, -5.89 70.09, -7.14 83.49 M-0.71 0.7 C-1.86 14.35, -6.9 68.27, -8.06 81.87" stroke="#364fc7" stroke-width="1" fill="none"></path></g><g transform="translate(117.21250752138803 344.2174774170062) rotate(0 -3.7832961818561444 42.09120907281519)"><path d="M-13.86 52.96 C-12.37 60.07, -13.81 64.71, -6.78 81.26 M-16.08 53.64 C-12.54 62.66, -10.12 74.28, -7.73 81.64" stroke="#364fc7" stroke-width="1" fill="none"></path></g><g transform="translate(117.21250752138803 344.2174774170062) rotate(0 -3.7832961818561444 42.09120907281519)"><path d="M6.58 54.8 C3.22 61.55, -3.08 65.75, -6.78 81.26 M4.36 55.47 C0.33 63.99, -4.83 74.93, -7.73 81.64" stroke="#364fc7" stroke-width="1" fill="none"></path></g></g><mask id="mask-L_qLfsANXUH3zpq2JdQgJ"><rect x="0" y="0" fill="#fff" width="224.3987029654587" height="526.7331024170061"></rect><rect x="63.11940979935275" y="373.9752899170062" fill="#000" width="101" height="23" opacity="1"></rect></mask><g transform="translate(63.11940979935275 373.9752899170062) rotate(0 50.30980154017914 12.33339657281519)"><text x="50.5" y="17" font-family="Virgil, HanziPen SC, Kai, Segoe UI Emoji" font-size="16px" fill="#364fc7" text-anchor="middle" style="white-space: pre;" direction="ltr">默认启用认证</text></g><g stroke-linecap="round"><g transform="translate(438.80969984703825 104.80732116700608) rotate(0 -10.996248268558759 80.46983801387249)"><path d="M0.2 -0.99 C-3.5 25.83, -18.59 134.76, -22.2 161.93" stroke="#e67700" stroke-width="1.5" fill="none" stroke-dasharray="8 9"></path></g><g transform="translate(438.80969984703825 104.80732116700608) rotate(0 -10.996248268558759 80.46983801387249)"><path d="M-30.22 130.7 C-25.11 140.91, -23.03 149.06, -20.42 161.29" stroke="#e67700" stroke-width="1.5" fill="none"></path></g><g transform="translate(438.80969984703825 104.80732116700608) rotate(0 -10.996248268558759 80.46983801387249)"><path d="M-9.89 133.47 C-10.99 142.87, -15.09 150.18, -20.42 161.29" stroke="#e67700" stroke-width="1.5" fill="none"></path></g></g><mask></mask><g mask="url(#mask-Mj-SOwkd_KZClfgJpprig)" stroke-linecap="round"><g transform="translate(469.27980261847824 107.32796094582875) rotate(0 24.78484260042501 78.35623638965188)"><path d="M-0.99 -1.15 C7.27 25.13, 41.96 131.43, 50.56 157.86" stroke="#e67700" stroke-width="1.5" fill="none" stroke-dasharray="8 9"></path></g><g transform="translate(469.27980261847824 107.32796094582875) rotate(0 24.78484260042501 78.35623638965188)"><path d="M30.16 135.51 C38.54 144.81, 44.82 154.16, 49.92 159.37" stroke="#e67700" stroke-width="1.5" fill="none"></path></g><g transform="translate(469.27980261847824 107.32796094582875) rotate(0 24.78484260042501 78.35623638965188)"><path d="M49.67 129.15 C50.63 140.71, 49.48 152.48, 49.92 159.37" stroke="#e67700" stroke-width="1.5" fill="none"></path></g></g><mask id="mask-Mj-SOwkd_KZClfgJpprig"><rect x="0" y="0" fill="#fff" width="619.0777805415833" height="365.55842969582875"></rect><rect x="386.67879158003075" y="163.44319532082875" fill="#000" width="215" height="46" opacity="1"></rect></mask><g transform="translate(386.67879158003075 163.44319532082875) rotate(0 107.3858536388725 22.241002014651883)"><text x="107.5" y="17" font-family="Virgil, HanziPen SC, Kai, Segoe UI Emoji" font-size="16px" fill="#e67700" text-anchor="middle" style="white-space: pre;" direction="ltr">本地开发环境可能需要从办公</text><text x="107.5" y="40" font-family="Virgil, HanziPen SC, Kai, Segoe UI Emoji" font-size="16px" fill="#e67700" text-anchor="middle" style="white-space: pre;" direction="ltr">网连接Nacos做开发使用</text></g><g mask="url(#mask-R6GyLRF6aT2zTDi35J413)" stroke-linecap="round"><g transform="translate(412.93187438863106 345.4374265674908) rotate(0 -5.447948955727327 38.696936515966115)"><path d="M0.77 -0.37 C-1.01 12.78, -9.63 64.67, -11.66 77.76" stroke="#e67700" stroke-width="1.5" fill="none" stroke-dasharray="8 9"></path></g><g transform="translate(412.93187438863106 345.4374265674908) rotate(0 -5.447948955727327 38.696936515966115)"><path d="M-17.93 49.72 C-17.75 56.43, -15.78 62.57, -10.53 75.95" stroke="#e67700" stroke-width="1.5" fill="none"></path></g><g transform="translate(412.93187438863106 345.4374265674908) rotate(0 -5.447948955727327 38.696936515966115)"><path d="M2.33 52.98 C-1.86 59.12, -4.29 64.55, -10.53 75.95" stroke="#e67700" stroke-width="1.5" fill="none"></path></g></g><mask id="mask-R6GyLRF6aT2zTDi35J413"><rect x="0" y="0" fill="#fff" width="525.4442708232912" height="524.0310859458287"></rect><rect x="364.6756761713009" y="373.2342562566598" fill="#000" width="84" height="23" opacity="1"></rect></mask><g transform="translate(364.6756761713009 373.2342562566598) rotate(0 42.808249261602725 10.90010682679707)"><text x="42" y="17" font-family="Virgil, HanziPen SC, Kai, Segoe UI Emoji" font-size="16px" fill="#e67700" text-anchor="middle" style="white-space: pre;" direction="ltr">默认不鉴权</text></g><g stroke-linecap="round"><g transform="translate(361.106820182644 348.8787373541993) rotate(0 -8.565510776636017 37.37556163528933)"><path d="M0.85 -0.83 C-2.21 11.61, -14.49 61.56, -17.59 74.25 M-0.16 1.35 C-3.35 13.99, -15 63.58, -17.98 75.58" stroke="#5c940d" stroke-width="1" fill="none"></path></g><g transform="translate(361.106820182644 348.8787373541993) rotate(0 -8.565510776636017 37.37556163528933)"><path d="M-22.74 47.54 C-20.87 58.1, -17.87 65.63, -17.73 75.49 M-21.95 46.7 C-20.96 56.62, -19.51 66.12, -18.75 76.29" stroke="#5c940d" stroke-width="1" fill="none"></path></g><g transform="translate(361.106820182644 348.8787373541993) rotate(0 -8.565510776636017 37.37556163528933)"><path d="M-2.79 52.35 C-8.16 61.3, -12.42 67.08, -17.73 75.49 M-2 51.5 C-7.64 59.69, -12.84 67.59, -18.75 76.29" stroke="#5c940d" stroke-width="1" fill="none"></path></g></g><mask></mask><g mask="url(#mask-1APj67JIFhmqdCClQQlzM)" stroke-linecap="round"><g transform="translate(540.4227227764391 341.628742195829) rotate(0 -16.039004678048286 42.28913250230244)"><path d="M-0.83 1.06 C-5.98 14.84, -26.36 70.11, -31.25 83.52" stroke="#e67700" stroke-width="1.5" fill="none" stroke-dasharray="8 9"></path></g><g transform="translate(540.4227227764391 341.628742195829) rotate(0 -16.039004678048286 42.28913250230244)"><path d="M-29.39 52.87 C-29.46 62.72, -32.81 69.92, -31.34 84.18" stroke="#e67700" stroke-width="1.5" fill="none"></path></g><g transform="translate(540.4227227764391 341.628742195829) rotate(0 -16.039004678048286 42.28913250230244)"><path d="M-10.13 59.95 C-15.43 67.75, -23.96 73.05, -31.34 84.18" stroke="#e67700" stroke-width="1.5" fill="none"></path></g></g><mask id="mask-1APj67JIFhmqdCClQQlzM"><rect x="0" y="0" fill="#fff" width="671.2847384487504" height="524.2381171958287"></rect><rect x="482.9917149402834" y="371.43342969582886" fill="#000" width="84" height="23" opacity="1"></rect></mask><g transform="translate(482.9917149402834 371.43342969582886) rotate(0 41.3920031581074 12.48444500230255)"><text x="42" y="17" font-family="Virgil, HanziPen SC, Kai, Segoe UI Emoji" font-size="16px" fill="#e67700" text-anchor="middle" style="white-space: pre;" direction="ltr">默认不鉴权</text></g><g mask="url(#mask-fTXTLcxv_wB9jC8Q3RflB)" stroke-linecap="round"><g transform="translate(787.6738539030994 328.4765625) rotate(0 -69.26630140037435 -36.93567937058455)"><path d="M-0.39 0.91 C-10.04 -11.64, -35.57 -68.41, -58.75 -74.2 C-81.93 -79.99, -126.05 -40.54, -139.46 -33.85 M1.61 0.34 C-8.07 -11.58, -35.72 -67.75, -59.35 -73.23 C-82.97 -78.72, -126.91 -39.25, -140.14 -32.56" stroke="#5c940d" stroke-width="1" fill="none"></path></g><g transform="translate(787.6738539030994 328.4765625) rotate(0 -69.26630140037435 -36.93567937058455)"><path d="M-121.06 -55.75 C-128.22 -51.07, -130.56 -45.05, -140.62 -33.89 M-121.67 -57.21 C-126.11 -51.9, -130.11 -45.54, -140.26 -31.77" stroke="#5c940d" stroke-width="1" fill="none"></path></g><g transform="translate(787.6738539030994 328.4765625) rotate(0 -69.26630140037435 -36.93567937058455)"><path d="M-109.54 -38.77 C-119.52 -38.04, -124.51 -35.94, -140.62 -33.89 M-110.15 -40.23 C-117.52 -39.09, -124.3 -36.82, -140.26 -31.77" stroke="#5c940d" stroke-width="1" fill="none"></path></g></g><mask id="mask-fTXTLcxv_wB9jC8Q3RflB"><rect x="0" y="0" fill="#fff" width="1027.2852078061987" height="501.58984375"></rect><rect x="686.244140625" y="232.36328125" fill="#000" width="84" height="46" opacity="1"></rect></mask><g transform="translate(686.244140625 232.36328125) rotate(0 32.163411877725025 59.17760187941545)"><text x="42" y="17" font-family="Virgil, HanziPen SC, Kai, Segoe UI Emoji" font-size="16px" fill="#5c940d" text-anchor="middle" style="white-space: pre;" direction="ltr">线上应用</text><text x="42" y="40" font-family="Virgil, HanziPen SC, Kai, Segoe UI Emoji" font-size="16px" fill="#5c940d" text-anchor="middle" style="white-space: pre;" direction="ltr">从内网访问</text></g><g stroke-linecap="round"><g transform="translate(560.5308068376944 345.1408737202687) rotate(0 3.9711547126102005 39.2422799490858)"><path d="M0.68 -1.09 C2.14 11.77, 7.05 64.91, 8.37 78.06 M-0.43 0.96 C0.92 13.94, 6.09 66.56, 7.5 79.57" stroke="#5c940d" stroke-width="1" fill="none"></path></g><g transform="translate(560.5308068376944 345.1408737202687) rotate(0 3.9711547126102005 39.2422799490858)"><path d="M-7.4 52.83 C-1.96 60.39, 1.16 65.63, 6.32 81.43 M-5.11 51.81 C-1.57 58.68, 0.67 66.06, 7.44 79.64" stroke="#5c940d" stroke-width="1" fill="none"></path></g><g transform="translate(560.5308068376944 345.1408737202687) rotate(0 3.9711547126102005 39.2422799490858)"><path d="M13.02 50.73 C13 58.97, 10.65 64.77, 6.32 81.43 M15.3 49.71 C14.08 57, 11.54 64.88, 7.44 79.64" stroke="#5c940d" stroke-width="1" fill="none"></path></g></g><mask></mask><g stroke-linecap="round" transform="translate(54.6875 277.7109375) rotate(0 68.5 28)"><path d="M15.51 1.13 L127.31 1.13 L134.94 6.13 L136.31 9.39 L134.94 49.98 L130.22 55.83 L122.33 56.95 L6.34 56.54 L1.44 50.3 L1.8 45.16 L0.35 10.44 L2.63 5.64 L4.62 1.81 L14.22 -0.14" stroke="none" stroke-width="0" fill="#12b886"></path><path d="M14 0 M14 0 C54.63 0.8, 93.67 -0.88, 123 0 M14 0 C49.75 -0.77, 85.36 0.33, 123 0 M123 0 C130.79 -1.54, 137.78 4.5, 137 14 M123 0 C133.5 1.46, 135.78 6.33, 137 14 M137 14 C137.84 23.08, 137.19 36, 137 42 M137 14 C136.47 19.8, 136.75 25.84, 137 42 M137 42 C136.64 51.63, 130.99 56.93, 123 56 M137 42 C139.29 50.06, 133.86 56.82, 123 56 M123 56 C95.32 54.72, 65.53 54.09, 14 56 M123 56 C96.21 54.66, 69.64 54.96, 14 56 M14 56 C5.95 55.92, -1.04 51.36, 0 42 M14 56 C4 54.39, 1.03 49.41, 0 42 M0 42 C-0.16 35.25, 0.78 27.26, 0 14 M0 42 C0.04 32.96, -0.97 22.47, 0 14 M0 14 C-1.23 4.56, 4 1.39, 14 0 M0 14 C0.87 4.44, 5.25 0.32, 14 0" stroke="#087f5b" stroke-width="1" fill="none"></path></g><g transform="translate(81.6875 291.7109375) rotate(0 41.5 14)"><text x="41.5" y="21" font-family="Virgil, HanziPen SC, Kai, Segoe UI Emoji" font-size="20px" fill="#ffff" text-anchor="middle" style="white-space: pre;" direction="ltr">e.g. 8080</text></g><g transform="translate(139.37890625 637.703125) rotate(0 29.5 28)"><text x="0" y="21" font-family="Virgil, HanziPen SC, Kai, Segoe UI Emoji" font-size="20px" fill="#495057" text-anchor="start" style="white-space: pre;" direction="ltr">Nacos</text><text x="0" y="49" font-family="Virgil, HanziPen SC, Kai, Segoe UI Emoji" font-size="20px" fill="#495057" text-anchor="start" style="white-space: pre;" direction="ltr">Console</text></g><g stroke-linecap="round" transform="translate(52.4609375 544.06640625) rotate(0 70.5 33)"><path d="M16.76 -0.09 L125.16 -0.47 L133.23 1.14 L140.54 5.13 L142.54 11.97 L141.95 47.97 L140.09 59.02 L134.32 65.27 L124.38 66.13 L16.22 66.66 L6.62 62.83 L2.16 59.77 L0.11 54.62 L-1.02 11.32 L5.21 4.2 L9.85 -0.57 L17.1 0.16" stroke="none" stroke-width="0" fill="#15aabf"></path><path d="M16.5 0 M16.5 0 C54.2 2.08, 92.48 -1.4, 124.5 0 M16.5 0 C53.76 -1.08, 90.46 0.07, 124.5 0 M124.5 0 C134.81 1.58, 141.93 4.47, 141 16.5 M124.5 0 C135.83 2.04, 138.78 3.22, 141 16.5 M141 16.5 C140.96 24.84, 140.56 31.69, 141 49.5 M141 16.5 C140.6 24.84, 141.51 31.48, 141 49.5 M141 49.5 C139.13 59.97, 136.42 65.01, 124.5 66 M141 49.5 C140.69 58.64, 134.18 68.05, 124.5 66 M124.5 66 C96.28 64.08, 71.36 65.04, 16.5 66 M124.5 66 C97.04 66.14, 70.15 64.99, 16.5 66 M16.5 66 C3.54 66.96, -0.43 60.2, 0 49.5 M16.5 66 C6.08 63.9, 1.21 62.15, 0 49.5 M0 49.5 C-1.62 38.68, -1.32 26.86, 0 16.5 M0 49.5 C-0.33 40.96, -0.09 32.47, 0 16.5 M0 16.5 C1.07 5.87, 3.83 -0.55, 16.5 0 M0 16.5 C1.1 6.86, 4.77 -2.07, 16.5 0" stroke="#0b7285" stroke-width="1" fill="none"></path></g><g transform="translate(75.4609375 549.06640625) rotate(0 47.5 28)"><text x="47.5" y="21" font-family="Virgil, HanziPen SC, Kai, Segoe UI Emoji" font-size="20px" fill="#fff" text-anchor="middle" style="white-space: pre;" direction="ltr">Nacos Data </text><text x="47.5" y="49" font-family="Virgil, HanziPen SC, Kai, Segoe UI Emoji" font-size="20px" fill="#fff" text-anchor="middle" style="white-space: pre;" direction="ltr">Caller</text></g><g stroke-linecap="round"><g transform="translate(123.07797006554028 502.8989836409968) rotate(0 2.304617790255236 16.34611144636756)"><path d="M-0.8 -0.71 C0.04 4.72, 4.38 26.71, 5.4 32.28 M0.99 1.53 C1.73 7.12, 4.34 28.03, 5.04 33.4" stroke="#364fc7" stroke-width="1" fill="none"></path></g><g transform="translate(123.07797006554028 502.8989836409968) rotate(0 2.304617790255236 16.34611144636756)"><path d="M-3.58 20.13 C-1.18 25.07, 1.9 29.29, 3.76 34.58 M-2.64 18.63 C-0.64 22.85, 1.64 26.27, 4.97 33.49" stroke="#364fc7" stroke-width="1" fill="none"></path></g><g transform="translate(123.07797006554028 502.8989836409968) rotate(0 2.304617790255236 16.34611144636756)"><path d="M7.74 18.69 C6.36 24.03, 5.68 28.74, 3.76 34.58 M8.67 17.2 C7.58 21.89, 6.76 25.71, 4.97 33.49" stroke="#364fc7" stroke-width="1" fill="none"></path></g></g><mask></mask><g stroke-linecap="round"><g transform="translate(205.46899697445588 578.2490073145059) rotate(0 15.318793991908024 0.5085255975768632)"><path d="M-0.71 1.11 C4.18 1.45, 24.02 1.31, 29.05 1.24 M1.12 0.65 C6.42 0.75, 26.79 0.01, 31.35 -0.31" stroke="#364fc7" stroke-width="1" fill="none"></path></g><g transform="translate(205.46899697445588 578.2490073145059) rotate(0 15.318793991908024 0.5085255975768632)"><path d="M18.98 4.49 C22.78 3.46, 25.94 1.21, 32.4 -0.71 M17.64 5.37 C21.76 3.88, 25.16 2.09, 31.43 -0.37" stroke="#364fc7" stroke-width="1" fill="none"></path></g><g transform="translate(205.46899697445588 578.2490073145059) rotate(0 15.318793991908024 0.5085255975768632)"><path d="M18.48 -5.7 C22.35 -3.91, 25.65 -3.34, 32.4 -0.71 M17.14 -4.82 C21.48 -3.38, 25.03 -2.23, 31.43 -0.37" stroke="#364fc7" stroke-width="1" fill="none"></path></g></g><mask></mask><g stroke-linecap="round" transform="translate(248.18359375 501.18359375) rotate(0 13.5 61)"><path d="M5.42 -1.18 L25.06 -0.89 L27.11 1.02 L27.95 5.22 L28.41 114.72 L25.08 121.9 L20.13 122.13 L3.52 122.24 L1.86 119.47 L-0.16 115.47 L-0.14 8.01 L0.41 0.37 L7.83 0.08" stroke="none" stroke-width="0" fill="#12b886"></path><path d="M6.75 0 M6.75 0 C11.29 0.76, 15.35 -0.21, 20.25 0 M6.75 0 C9.56 0.37, 13.36 0.45, 20.25 0 M20.25 0 C26.02 -1.06, 28.44 3.47, 27 6.75 M20.25 0 C23.96 1.82, 28.07 1.06, 27 6.75 M27 6.75 C25.98 39.36, 27.46 75.16, 27 115.25 M27 6.75 C27.63 38.88, 27.95 73.35, 27 115.25 M27 115.25 C25.89 121.08, 25.46 121.25, 20.25 122 M27 115.25 C24.85 119.14, 25.81 120.86, 20.25 122 M20.25 122 C17.59 121.27, 12.03 120.81, 6.75 122 M20.25 122 C16.85 121.73, 13.52 121.89, 6.75 122 M6.75 122 C0.85 122.9, -1.67 118.36, 0 115.25 M6.75 122 C0 123.1, -0.49 119.41, 0 115.25 M0 115.25 C2.43 80.78, 1.48 46.32, 0 6.75 M0 115.25 C-0.3 90.73, 0.45 67.25, 0 6.75 M0 6.75 C-0.2 2.76, 2.53 1.12, 6.75 0 M0 6.75 C1.23 2.68, 0.33 -0.63, 6.75 0" stroke="#087f5b" stroke-width="1" fill="none"></path></g><g transform="translate(254.68359375 506.18359375) rotate(0 7 56)"><text x="7" y="21" font-family="Virgil, HanziPen SC, Kai, Segoe UI Emoji" font-size="20px" fill="#ffff" text-anchor="middle" style="white-space: pre;" direction="ltr">8</text><text x="7" y="49" font-family="Virgil, HanziPen SC, Kai, Segoe UI Emoji" font-size="20px" fill="#ffff" text-anchor="middle" style="white-space: pre;" direction="ltr">8</text><text x="7" y="77" font-family="Virgil, HanziPen SC, Kai, Segoe UI Emoji" font-size="20px" fill="#ffff" text-anchor="middle" style="white-space: pre;" direction="ltr">4</text><text x="7" y="105" font-family="Virgil, HanziPen SC, Kai, Segoe UI Emoji" font-size="20px" fill="#ffff" text-anchor="middle" style="white-space: pre;" direction="ltr">8</text></g><g stroke-linecap="round" transform="translate(316.33203125 527.29296875) rotate(0 44 33)"><path d="M18.36 -1.31 L73.3 -0.67 L79.67 -0.5 L85.29 3.59 L86.73 10.87 L87.88 16.63 L87.46 54.03 L84.05 61.03 L78.56 65.18 L71.36 67.26 L15.22 64.68 L10.36 65.05 L4.69 60.27 L0.85 53.52 L1.44 12.24 L3.87 3.07 L11.22 -0.51 L14.96 0.78" stroke="none" stroke-width="0" fill="#40c057"></path><path d="M16.5 0 M16.5 0 C31.49 1.09, 49.82 -1.04, 71.5 0 M16.5 0 C37.49 1.17, 57.22 -0.71, 71.5 0 M71.5 0 C81.01 -0.5, 88.21 5.55, 88 16.5 M71.5 0 C83.53 -0.41, 88.34 3.95, 88 16.5 M88 16.5 C89.66 28.64, 87.58 37.49, 88 49.5 M88 16.5 C88.02 24.71, 87.58 35.44, 88 49.5 M88 49.5 C87.04 59.78, 80.86 64.99, 71.5 66 M88 49.5 C86.81 61.98, 82.41 64.8, 71.5 66 M71.5 66 C55.83 63.94, 36.98 63.66, 16.5 66 M71.5 66 C52.62 65, 33.76 66.64, 16.5 66 M16.5 66 C6.33 66.49, 1.67 58.96, 0 49.5 M16.5 66 C6.01 64.58, -0.13 59.73, 0 49.5 M0 49.5 C0.39 37.59, 1 26.19, 0 16.5 M0 49.5 C0.75 39.58, -0.04 27.58, 0 16.5 M0 16.5 C0.33 4.63, 5.28 0.77, 16.5 0 M0 16.5 C1.88 3.54, 3.86 1.66, 16.5 0" stroke="#087f5b" stroke-width="1" fill="none"></path></g><g transform="translate(330.33203125 532.29296875) rotate(0 30 28)"><text x="30" y="21" font-family="Virgil, HanziPen SC, Kai, Segoe UI Emoji" font-size="20px" fill="#ffff" text-anchor="middle" style="white-space: pre;" direction="ltr">Admin </text><text x="30" y="49" font-family="Virgil, HanziPen SC, Kai, Segoe UI Emoji" font-size="20px" fill="#ffff" text-anchor="middle" style="white-space: pre;" direction="ltr">API</text></g><g stroke-linecap="round"><g transform="translate(284.52921987445416 568.2192482894511) rotate(0 11.77089889511609 0.2600801899517933)"><path d="M0.57 -0.92 C4.41 -0.88, 20.37 -0.48, 24.13 -0.14 M-0.59 1.21 C3.07 1.47, 19.81 1.55, 23.63 1.23" stroke="#364fc7" stroke-width="1" fill="none"></path></g><g transform="translate(284.52921987445416 568.2192482894511) rotate(0 11.77089889511609 0.2600801899517933)"><path d="M11.92 6.36 C16.73 3.67, 22.19 2.06, 23.71 1.07 M12.76 5.6 C16.37 4.52, 19.64 2.33, 23.94 1.26" stroke="#364fc7" stroke-width="1" fill="none"></path></g><g transform="translate(284.52921987445416 568.2192482894511) rotate(0 11.77089889511609 0.2600801899517933)"><path d="M11.68 -1.6 C16.56 -1.19, 22.11 0.31, 23.71 1.07 M12.53 -2.36 C16.22 -0.79, 19.57 -0.32, 23.94 1.26" stroke="#364fc7" stroke-width="1" fill="none"></path></g></g><mask></mask><g transform="translate(293.720703125 602.015625) rotate(0 50.5 11.5)"><text x="0" y="17" font-family="Virgil, HanziPen SC, Kai, Segoe UI Emoji" font-size="16px" fill="#1864ab" text-anchor="start" style="white-space: pre;" direction="ltr">默认启用认证</text></g></svg>