<svg version="1.1" xmlns="http://www.w3.org/2000/svg" viewBox="0 0 840.05078125 648.02734375" width="1680.1015625" height="1296.0546875">
  <!-- svg-source:excalidraw -->
  
  <defs>
    <style class="style-fonts">
      @font-face {
        font-family: "Virgil";
        src: url("https://excalidraw.com/Virgil.woff2");
      }
      @font-face {
        font-family: "Cascadia";
        src: url("https://excalidraw.com/Cascadia.woff2");
      }
    </style>
  </defs>
  <g stroke-linecap="round" transform="translate(17.234375 10) rotate(0 100.5 25.5)"><path d="M13.44 -0.93 L190.38 -0.92 L195.95 0.71 L198.73 6.23 L200.62 42.5 L197.4 46.94 L193.79 51.66 L187.09 52.82 L11.06 48.9 L6.06 47.28 L0.79 42.81 L1.39 13.81 L2.33 6.3 L2.32 3.33 L5.85 -0.43 L12.7 -1.07" stroke="none" stroke-width="0" fill="#15aabf"></path><path d="M12.75 0 M12.75 0 C79.3 -2.4, 143 -0.75, 188.25 0 M12.75 0 C75.73 -0.82, 137.72 -1.31, 188.25 0 M188.25 0 C195.49 0.7, 199.36 3.41, 201 12.75 M188.25 0 C196.13 1.87, 201.74 5.47, 201 12.75 M201 12.75 C199.07 22.76, 199.05 29.12, 201 38.25 M201 12.75 C201.56 22.23, 201.1 30.25, 201 38.25 M201 38.25 C200.67 46.39, 194.99 51.36, 188.25 51 M201 38.25 C199.3 46.87, 196.6 53.19, 188.25 51 M188.25 51 C117.84 48.82, 48.06 48.1, 12.75 51 M188.25 51 C142.48 49.75, 96.12 51.24, 12.75 51 M12.75 51 C4.46 52, -1.17 46.53, 0 38.25 M12.75 51 C3.53 49.69, 2.18 44.94, 0 38.25 M0 38.25 C1.39 30.42, -0.76 23.34, 0 12.75 M0 38.25 C0.1 30.15, -0.51 23.72, 0 12.75 M0 12.75 C-1.93 5.34, 4.64 1.22, 12.75 0 M0 12.75 C-2.1 5.27, 2.08 -1.71, 12.75 0" stroke="#0b7285" stroke-width="1" fill="none"></path></g><g transform="translate(77.734375 24) rotate(0 40 11.5)"><text x="40" y="17" font-family="Virgil, HanziPen SC, Kai, Segoe UI Emoji" font-size="16px" fill="#ffff" text-anchor="middle" style="white-space: pre;" direction="ltr">Nacos Client</text></g><g stroke-linecap="round" transform="translate(44.37890625 285.23828125) rotate(0 74.5 25.5)"><path d="M11.19 1.87 L141.68 0.22 L147.93 6.22 L150.41 10.62 L147.73 42.16 L145.51 48.88 L136.36 49.27 L6.3 48.57 L4.17 48.26 L0.57 41.96 L0.03 10.3 L2.47 5.01 L6.76 1.3 L12.9 1.99" stroke="none" stroke-width="0" fill="#82c91e"></path><path d="M12.75 0 M12.75 0 C40.86 -0.03, 66.5 0.31, 136.25 0 M12.75 0 C46.18 1.21, 79.45 -0.61, 136.25 0 M136.25 0 C143.31 1.25, 148.81 2.77, 149 12.75 M136.25 0 C143.77 -1.31, 147.55 2.57, 149 12.75 M149 12.75 C149.07 16.79, 148.68 22.79, 149 38.25 M149 12.75 C148.29 19.44, 148.7 25.56, 149 38.25 M149 38.25 C147.52 45.25, 146.43 52.5, 136.25 51 M149 38.25 C149 47.43, 144.16 49.72, 136.25 51 M136.25 51 C95.12 51.84, 53.35 52.39, 12.75 51 M136.25 51 C109.41 50.31, 84.57 50.29, 12.75 51 M12.75 51 C3.8 49.7, -0.57 47.61, 0 38.25 M12.75 51 C5.48 51.97, 1.57 45.02, 0 38.25 M0 38.25 C1.05 31.21, -0.68 27.15, 0 12.75 M0 38.25 C0.29 33.36, -0.42 26.53, 0 12.75 M0 12.75 C1.95 3.5, 4.86 -1.85, 12.75 0 M0 12.75 C0.99 4.94, 3.72 -0.99, 12.75 0" stroke="#5c940d" stroke-width="1" fill="none"></path></g><g transform="translate(84.37890625 299.23828125) rotate(0 34.5 11.5)"><text x="34.5" y="17" font-family="Virgil, HanziPen SC, Kai, Segoe UI Emoji" font-size="16px" fill="#fff" text-anchor="middle" style="white-space: pre;" direction="ltr">GrpcClient</text></g><g stroke-linecap="round" transform="translate(19.67578125 146.80859375) rotate(0 100 25.5)"><path d="M11.78 -1.2 L191.87 -0.4 L193.98 0.91 L199.4 8.98 L199.85 39.58 L194.99 45.96 L193.48 49.03 L186.59 52.66 L11.16 51.99 L5.68 50.01 L0.03 42.08 L-1.41 14 L2.16 8.2 L1.79 3.08 L6.43 1.59 L14.36 -1.14" stroke="none" stroke-width="0" fill="#12b886"></path><path d="M12.75 0 M12.75 0 C53.27 0.19, 96.21 -1, 187.25 0 M12.75 0 C67.83 -0.28, 122.37 -0.62, 187.25 0 M187.25 0 C195.82 -1.22, 199.15 3.77, 200 12.75 M187.25 0 C193.57 1.93, 200.81 6.27, 200 12.75 M200 12.75 C201.77 23.61, 201.79 33.12, 200 38.25 M200 12.75 C199.73 20.54, 199.68 31.17, 200 38.25 M200 38.25 C198.33 47.44, 195.82 49.21, 187.25 51 M200 38.25 C198.15 45.13, 194.03 49.51, 187.25 51 M187.25 51 C152.1 47.97, 118.84 50.93, 12.75 51 M187.25 51 C118.56 51.38, 50.39 51.14, 12.75 51 M12.75 51 C4.99 50.77, -0.69 48.5, 0 38.25 M12.75 51 C5.07 53, 1.8 44.53, 0 38.25 M0 38.25 C-0.7 32.82, 1.82 25.21, 0 12.75 M0 38.25 C-0.28 28.65, -0.15 20.06, 0 12.75 M0 12.75 C0.78 2.44, 4.36 -0.36, 12.75 0 M0 12.75 C1.62 6.13, 4.95 -1.09, 12.75 0" stroke="#087f5b" stroke-width="1" fill="none"></path></g><g transform="translate(59.17578125 160.80859375) rotate(0 60.5 11.5)"><text x="60.5" y="17" font-family="Virgil, HanziPen SC, Kai, Segoe UI Emoji" font-size="16px" fill="#fff" text-anchor="middle" style="white-space: pre;" direction="ltr">ServerListManager</text></g><g stroke-linecap="round" transform="translate(352.09765625 145.484375) rotate(0 100 25.5)"><path d="M12.75 0 M12.75 0 C83.61 -2.84, 152.69 -2.22, 187.25 0 M187.25 0 C194.23 -1.99, 200.64 4.68, 200 12.75 M200 12.75 C198.37 21.95, 201.17 33.59, 200 38.25 M200 38.25 C199.2 47.98, 194.24 51.57, 187.25 51 M187.25 51 C149.45 51.29, 111.09 51.06, 12.75 51 M12.75 51 C6.09 51.24, 0.01 47.46, 0 38.25 M0 38.25 C1.06 31.51, 0.34 27.22, 0 12.75 M0 12.75 C0.45 2.76, 3.33 -1.53, 12.75 0" stroke="#0b7285" stroke-width="1.5" fill="none" stroke-dasharray="1.5 7"></path></g><g transform="translate(392.59765625 159.484375) rotate(0 59.5 11.5)"><text x="59.5" y="17" font-family="Virgil, HanziPen SC, Kai, Segoe UI Emoji" font-size="16px" fill="#0b7285" text-anchor="middle" style="white-space: pre;" direction="ltr">ServerListProvider</text></g><g stroke-linecap="round"><g transform="translate(117.37812512737537 69.59765625) rotate(0 1.4097736404019656 34.01454388602639)"><path d="M-0.4 0.23 C-0.23 11.87, 0.37 57.31, 0.87 68.73 M1.6 -0.7 C2.16 10.69, 3.09 55.69, 3.22 66.92" stroke="#343a40" stroke-width="1" fill="none"></path></g><g transform="translate(117.37812512737537 69.59765625) rotate(0 1.4097736404019656 34.01454388602639)"><path d="M-7.14 37.75 C-3.67 48.74, -0.6 53.87, 4.89 66.67 M-7.18 39.8 C-5.25 45.86, -3.34 51.45, 2.41 67.85" stroke="#343a40" stroke-width="1" fill="none"></path></g><g transform="translate(117.37812512737537 69.59765625) rotate(0 1.4097736404019656 34.01454388602639)"><path d="M13.38 37.4 C10.89 48.43, 8 53.65, 4.89 66.67 M13.34 39.45 C10.65 45.6, 7.94 51.27, 2.41 67.85" stroke="#343a40" stroke-width="1" fill="none"></path></g></g><mask></mask><g transform="translate(134.08203125 87.6640625) rotate(0 33 11.5)"><text x="0" y="17" font-family="Virgil, HanziPen SC, Kai, Segoe UI Emoji" font-size="16px" fill="#000000" text-anchor="start" style="white-space: pre;" direction="ltr">Properties</text></g><g stroke-linecap="round"><g transform="translate(341.921875 187.72814595882153) rotate(0 -57.00055909102787 -0.33776522826124733)"><path d="M-0.85 -0.89 C-20.05 -1.14, -95.27 -0.36, -114.22 -0.38 M0.91 1.25 C-18.5 1.21, -95.56 -1.19, -114.91 -1.93" stroke="#000000" stroke-width="1" fill="none"></path></g><g transform="translate(341.921875 187.72814595882153) rotate(0 -57.00055909102787 -0.33776522826124733)"><path d="M-87.88 -10.4 C-95.42 -7.55, -107.49 -5.31, -115.95 -3.49 M-86.54 -10.57 C-92.63 -9.26, -100.27 -6.2, -115.35 -0.94" stroke="#000000" stroke-width="1" fill="none"></path></g><g transform="translate(341.921875 187.72814595882153) rotate(0 -57.00055909102787 -0.33776522826124733)"><path d="M-88.56 10.11 C-96.04 5.09, -107.84 -0.55, -115.95 -3.49 M-87.23 9.94 C-93.1 6.44, -100.59 4.7, -115.35 -0.94" stroke="#000000" stroke-width="1" fill="none"></path></g></g><mask></mask><g stroke-linecap="round"><g transform="translate(230.79168948273968 158.44053423897367) rotate(0 54.044737250312494 -0.6756807731941308)"><path d="M-0.43 0.1 C17.54 -0.12, 90.25 -1.31, 108.52 -1.47 M1.55 -0.9 C19.3 -0.9, 89.66 0.4, 107.52 0.06" stroke="#343a40" stroke-width="1" fill="none"></path></g><g transform="translate(230.79168948273968 158.44053423897367) rotate(0 54.044737250312494 -0.6756807731941308)"><path d="M79.47 10.11 C89.36 7.73, 100.41 2.2, 105.8 -1.77 M79.37 11.09 C89.41 5.43, 101.61 2.01, 107.91 -0.45" stroke="#343a40" stroke-width="1" fill="none"></path></g><g transform="translate(230.79168948273968 158.44053423897367) rotate(0 54.044737250312494 -0.6756807731941308)"><path d="M79.52 -10.41 C89.36 -5.48, 100.4 -3.7, 105.8 -1.77 M79.42 -9.44 C89.57 -7.04, 101.76 -2.42, 107.91 -0.45" stroke="#343a40" stroke-width="1" fill="none"></path></g></g><mask></mask><g transform="translate(244.2265625 124.1171875) rotate(0 33 11.5)"><text x="0" y="17" font-family="Virgil, HanziPen SC, Kai, Segoe UI Emoji" font-size="16px" fill="#000000" text-anchor="start" style="white-space: pre;" direction="ltr">Properties</text></g><g stroke-linecap="round"><g transform="translate(687.9821294158489 216.79296875) rotate(0 -63.88729781759798 -26.990736976901815)"><path d="M0.8 0.24 C-1.86 -7.72, 6.42 -39.74, -15.01 -48.44 C-36.44 -57.14, -109.17 -51.64, -127.79 -51.95 M-0.24 -0.67 C-3.05 -8.96, 5.95 -42.07, -15.44 -50.45 C-36.83 -58.82, -109.55 -50.61, -128.58 -50.92" stroke="#343a40" stroke-width="1" fill="none"></path></g><g transform="translate(687.9821294158489 216.79296875) rotate(0 -63.88729781759798 -26.990736976901815)"><path d="M-100.49 -60.85 C-111.09 -57.99, -122.85 -51.8, -126.75 -52.7 M-101.17 -61.54 C-106.1 -59.67, -112.66 -58.78, -129.04 -50.05" stroke="#343a40" stroke-width="1" fill="none"></path></g><g transform="translate(687.9821294158489 216.79296875) rotate(0 -63.88729781759798 -26.990736976901815)"><path d="M-99.53 -40.35 C-110.38 -45.26, -122.51 -46.83, -126.75 -52.7 M-100.21 -41.05 C-105.52 -43.39, -112.27 -46.71, -129.04 -50.05" stroke="#343a40" stroke-width="1" fill="none"></path></g></g><mask></mask><g transform="translate(580.27734375 126.6875) rotate(0 50 11.5)"><text x="0" y="17" font-family="Virgil, HanziPen SC, Kai, Segoe UI Emoji" font-size="16px" fill="#343a40" text-anchor="start" style="white-space: pre;" direction="ltr">Implementation</text></g><g stroke-linecap="round" transform="translate(541.57421875 233.13671875) rotate(0 144.23828125 95.177734375)"><path d="M32 0 M32 0 C86.58 -0.97, 139.25 2.19, 256.48 0 M256.48 0 C277.46 -0.64, 287.02 12.61, 288.48 32 M288.48 32 C286.82 59.63, 287.43 87.96, 288.48 158.36 M288.48 158.36 C287.4 179.29, 278.26 189.77, 256.48 190.36 M256.48 190.36 C204.83 189.94, 152.85 187.08, 32 190.36 M32 190.36 C9.79 190.12, 1.69 181.13, 0 158.36 M0 158.36 C-0.8 107.19, -0.97 60.07, 0 32 M0 32 C-1.75 12.32, 10.89 -1.27, 32 0" stroke="#343a40" stroke-width="1.5" fill="none" stroke-dasharray="8 9"></path></g><g stroke-linecap="round" transform="translate(601.984375 318.0078125) rotate(0 87 23.5)"><path d="M11.16 0.88 L166.52 1.21 L171.35 1.71 L175.48 9.63 L173.59 41.6 L168.45 46.82 L161.96 48.77 L5.44 47.68 L3.83 44.3 L2.05 36.12 L-1.2 9.6 L1.96 3.02 L6.48 2.75 L11.28 0.44" stroke="none" stroke-width="0" fill="#4c6ef5"></path><path d="M11.75 0 M11.75 0 C56.53 0.41, 100.88 0.24, 162.25 0 M11.75 0 C72.41 -0.78, 131.15 -1.41, 162.25 0 M162.25 0 C171.53 -0.24, 174.98 2.56, 174 11.75 M162.25 0 C168.53 -2.12, 172.55 2.59, 174 11.75 M174 11.75 C174.67 18.71, 174.72 25.1, 174 35.25 M174 11.75 C174.16 18.84, 174.39 28.37, 174 35.25 M174 35.25 C173.55 43.75, 171.92 48.47, 162.25 47 M174 35.25 C175.89 45.23, 169.29 44.89, 162.25 47 M162.25 47 C121.8 47.48, 81.09 45.06, 11.75 47 M162.25 47 C126.19 47.23, 90.68 46.97, 11.75 47 M11.75 47 C2.65 46.81, -0.33 43.65, 0 35.25 M11.75 47 C3.82 45.51, 2.12 42.36, 0 35.25 M0 35.25 C1.59 29.46, 1.09 21.95, 0 11.75 M0 35.25 C-0.12 28.6, -0.31 20.26, 0 11.75 M0 11.75 C-0.46 2.91, 2.31 1.41, 11.75 0 M0 11.75 C0.14 3.38, 5.11 -1.84, 11.75 0" stroke="#364fc7" stroke-width="1" fill="none"></path></g><g transform="translate(629.484375 330.0078125) rotate(0 59.5 11.5)"><text x="59.5" y="17" font-family="Virgil, HanziPen SC, Kai, Segoe UI Emoji" font-size="16px" fill="#fff" text-anchor="middle" style="white-space: pre;" direction="ltr">PropertiesProvider</text></g><g stroke-linecap="round" transform="translate(600.8427734375 256.38671875) rotate(0 87 23.5)"><path d="M10.85 1.9 L167.12 -0.23 L171.89 2.44 L173.89 8.43 L172.92 38.8 L171.27 46.26 L160.85 46.75 L5.58 47.76 L1.8 46 L0.67 37.49 L2.09 7.65 L2.35 4.05 L3.98 2.53 L12.88 -1.72" stroke="none" stroke-width="0" fill="#4c6ef5"></path><path d="M11.75 0 M11.75 0 C49.85 -1.01, 89.9 0.44, 162.25 0 M11.75 0 C67.51 -0.31, 122.28 0.92, 162.25 0 M162.25 0 C170.23 1.15, 172.74 4.23, 174 11.75 M162.25 0 C171.41 1.14, 173.95 5.92, 174 11.75 M174 11.75 C175.22 15.74, 175.17 22.05, 174 35.25 M174 11.75 C173.42 18.92, 174.7 26.47, 174 35.25 M174 35.25 C173.85 43.04, 171.59 45.05, 162.25 47 M174 35.25 C172.02 42.34, 169.25 46.51, 162.25 47 M162.25 47 C116.36 45.83, 69.08 46.66, 11.75 47 M162.25 47 C127.02 47.68, 93.59 47.36, 11.75 47 M11.75 47 C5.22 48.69, 1.16 43.86, 0 35.25 M11.75 47 C2.21 48.05, 0.1 41.8, 0 35.25 M0 35.25 C-0.76 27.89, -0.91 19.47, 0 11.75 M0 35.25 C0.32 27.54, -0.37 19.46, 0 11.75 M0 11.75 C0.35 5.78, 3.9 -0.01, 11.75 0 M0 11.75 C0.33 2.12, 4.64 1.15, 11.75 0" stroke="#364fc7" stroke-width="1" fill="none"></path></g><g transform="translate(633.3427734375 268.38671875) rotate(0 54.5 11.5)"><text x="54.5" y="17" font-family="Virgil, HanziPen SC, Kai, Segoe UI Emoji" font-size="16px" fill="#fff" text-anchor="middle" style="white-space: pre;" direction="ltr">EndpointProvider</text></g><g transform="translate(670.484375 368.0546875) rotate(0 21 14)"><text x="0" y="21" font-family="Virgil, HanziPen SC, Kai, Segoe UI Emoji" font-size="20px" fill="#000000" text-anchor="start" style="white-space: pre;" direction="ltr">... ...</text></g><g transform="translate(252.33984375 194.20703125) rotate(0 33.5 11.5)"><text x="0" y="17" font-family="Virgil, HanziPen SC, Kai, Segoe UI Emoji" font-size="16px" fill="#000000" text-anchor="start" style="white-space: pre;" direction="ltr">server list</text></g><g stroke-linecap="round"><g transform="translate(118.30963442992481 210.35480435564534) rotate(0 -0.9409281317838918 31.66303024134885)"><path d="M-0.04 0.39 C-0.34 10.94, -0.48 53.19, -0.84 63.78 M-1.52 -0.46 C-2.02 9.67, -1.86 51.41, -1.57 61.8" stroke="#000000" stroke-width="1" fill="none"></path></g><g transform="translate(118.30963442992481 210.35480435564534) rotate(0 -0.9409281317838918 31.66303024134885)"><path d="M-11.55 34.44 C-7.64 42.74, -3.34 53.93, -1.83 63.14 M-13.14 34.71 C-8.17 43.65, -5.75 53.02, -1.68 61.54" stroke="#000000" stroke-width="1" fill="none"></path></g><g transform="translate(118.30963442992481 210.35480435564534) rotate(0 -0.9409281317838918 31.66303024134885)"><path d="M8.97 34.17 C5.14 42.57, 1.71 53.86, -1.83 63.14 M7.38 34.45 C5.41 43.64, 0.9 53.1, -1.68 61.54" stroke="#000000" stroke-width="1" fill="none"></path></g></g><mask></mask><g transform="translate(130.55859375 218.03125) rotate(0 33.5 11.5)"><text x="0" y="17" font-family="Virgil, HanziPen SC, Kai, Segoe UI Emoji" font-size="16px" fill="#000000" text-anchor="start" style="white-space: pre;" direction="ltr">server list</text></g><g transform="translate(134.6015625 238.3671875) rotate(0 33 11.5)"><text x="0" y="17" font-family="Virgil, HanziPen SC, Kai, Segoe UI Emoji" font-size="16px" fill="#000000" text-anchor="start" style="white-space: pre;" direction="ltr">Properties</text></g><g stroke-linecap="round" transform="translate(10 587.02734375) rotate(0 100.5 25.5)"><path d="M13.23 0.32 L191.31 0.4 L197.15 2.47 L199.55 7.37 L200.51 41.74 L197.68 45.98 L193.47 48.33 L188.68 52.29 L8.4 48.88 L6.12 49.18 L-0.52 44.93 L1.37 14.56 L0.84 5.36 L4.97 4.85 L6.45 1.32 L11.07 -0.45" stroke="none" stroke-width="0" fill="#15aabf"></path><path d="M12.75 0 M12.75 0 C57.25 -1.22, 103.01 -0.24, 188.25 0 M12.75 0 C63.2 -1.02, 114.2 0.73, 188.25 0 M188.25 0 C196.13 -0.69, 199.42 6.17, 201 12.75 M188.25 0 C195.02 -1.29, 201.19 3.12, 201 12.75 M201 12.75 C202.62 19.89, 199.24 22.94, 201 38.25 M201 12.75 C201.08 18.79, 201.46 25.53, 201 38.25 M201 38.25 C201.53 45.81, 196.38 52.92, 188.25 51 M201 38.25 C199.93 44.83, 194.53 51.35, 188.25 51 M188.25 51 C135.84 52.47, 81.35 52.5, 12.75 51 M188.25 51 C133.79 50.49, 79.54 51.68, 12.75 51 M12.75 51 C5.99 49.18, 0.27 46.64, 0 38.25 M12.75 51 C6.24 49.09, 2.29 48.76, 0 38.25 M0 38.25 C-0.53 29.65, 0.59 19.66, 0 12.75 M0 38.25 C-1.13 29.94, -0.42 19.49, 0 12.75 M0 12.75 C1.91 3.08, 4.48 -1.93, 12.75 0 M0 12.75 C-1.47 2.98, 6.32 0.9, 12.75 0" stroke="#0b7285" stroke-width="1" fill="none"></path></g><g transform="translate(68.5 601.02734375) rotate(0 42 11.5)"><text x="42" y="17" font-family="Virgil, HanziPen SC, Kai, Segoe UI Emoji" font-size="16px" fill="#ffff" text-anchor="middle" style="white-space: pre;" direction="ltr">Nacos Server</text></g><g mask="url(#mask-jaD_UagARjkGa2x8HxNN9)" stroke-linecap="round"><g transform="translate(119.23931766755913 346.49609375) rotate(0 -3.338338411160464 115.33887459844351)"><path d="M-0.71 -0.5 C-1.83 38.44, -5.74 193.6, -6.85 232.49 M1.12 -1.82 C-0.15 36.9, -6.22 191.98, -7.8 230.8" stroke="#000000" stroke-width="1" fill="none"></path></g><g transform="translate(119.23931766755913 346.49609375) rotate(0 -3.338338411160464 115.33887459844351)"><path d="M7.97 27.93 C7.69 18.8, 5.48 10.52, 0.09 -1.51 M9.76 28.85 C7.3 21.94, 5.62 16.71, -0.94 -0.13" stroke="#000000" stroke-width="1" fill="none"></path></g><g transform="translate(119.23931766755913 346.49609375) rotate(0 -3.338338411160464 115.33887459844351)"><path d="M-12.54 27.39 C-6.85 18.54, -3.09 10.42, 0.09 -1.51 M-10.75 28.32 C-8.97 21.71, -6.4 16.6, -0.94 -0.13" stroke="#000000" stroke-width="1" fill="none"></path></g><g transform="translate(119.23931766755913 346.49609375) rotate(0 -3.338338411160464 115.33887459844351)"><path d="M-17.78 202.21 C-13.18 209.8, -9.95 218.13, -7.01 229.8 M-15.99 203.14 C-14.23 208.2, -12.05 214.77, -8.03 231.18" stroke="#000000" stroke-width="1" fill="none"></path></g><g transform="translate(119.23931766755913 346.49609375) rotate(0 -3.338338411160464 115.33887459844351)"><path d="M2.73 203.02 C1.36 210.26, -1.38 218.35, -7.01 229.8 M4.52 203.95 C2.03 208.64, -0.03 215.05, -8.03 231.18" stroke="#000000" stroke-width="1" fill="none"></path></g></g><mask id="mask-jaD_UagARjkGa2x8HxNN9"><rect x="0" y="0" fill="#fff" width="226.0732694681899" height="678.1640625"></rect><rect x="42.822341767243756" y="448.330078125" fill="#000" width="146" height="28" opacity="1"></rect></mask><g transform="translate(42.822341767243756 448.330078125) rotate(0 73.07863748915491 13.50489022344351)"><text x="73" y="21" font-family="Virgil, HanziPen SC, Kai, Segoe UI Emoji" font-size="20px" fill="#000000" text-anchor="middle" style="white-space: pre;" direction="ltr">Request&amp;Response</text></g></svg>